<?xml version="1.0" encoding="UTF-8" standalone="no"?>
<!-- Created with Inkscape (http://www.inkscape.org/) -->

<svg
   xmlns:dc="http://purl.org/dc/elements/1.1/"
   xmlns:cc="http://creativecommons.org/ns#"
   xmlns:rdf="http://www.w3.org/1999/02/22-rdf-syntax-ns#"
   xmlns:svg="http://www.w3.org/2000/svg"
   xmlns="http://www.w3.org/2000/svg"
   xmlns:sodipodi="http://sodipodi.sourceforge.net/DTD/sodipodi-0.dtd"
   xmlns:inkscape="http://www.inkscape.org/namespaces/inkscape"
   width="210mm"
   height="297mm"
   viewBox="0 0 210 297"
   version="1.1"
   id="svg8"
   inkscape:version="0.92.5 (0.92.5+69)"
   sodipodi:docname="AGI-for-dummies.svg">
  <defs
     id="defs2" />
  <sodipodi:namedview
     id="base"
     pagecolor="#ffffff"
     bordercolor="#666666"
     borderopacity="1.0"
     inkscape:pageopacity="0.0"
     inkscape:pageshadow="2"
     inkscape:zoom="4"
     inkscape:cx="470.71068"
     inkscape:cy="658.99495"
     inkscape:document-units="mm"
     inkscape:current-layer="layer1"
     showgrid="false"
     inkscape:window-width="1920"
     inkscape:window-height="1055"
     inkscape:window-x="0"
     inkscape:window-y="0"
     inkscape:window-maximized="1"
     inkscape:snap-global="true"
     inkscape:snap-bbox="true"
     inkscape:snap-nodes="true"
     inkscape:snap-object-midpoints="true"
     inkscape:snap-grids="true"
     inkscape:snap-to-guides="true"
     inkscape:snap-bbox-midpoints="false"
     inkscape:snap-center="true"
     inkscape:snap-others="true"
     inkscape:object-nodes="true" />
  <metadata
     id="metadata5">
    <rdf:RDF>
      <cc:Work
         rdf:about="">
        <dc:format>image/svg+xml</dc:format>
        <dc:type
           rdf:resource="http://purl.org/dc/dcmitype/StillImage" />
        <dc:title />
      </cc:Work>
    </rdf:RDF>
  </metadata>
  <g
     inkscape:label="Layer 1"
     inkscape:groupmode="layer"
     id="layer1">
    <path
       style="fill:none;stroke:#000000;stroke-width:0.26458332px;stroke-linecap:butt;stroke-linejoin:miter;stroke-opacity:1"
       d="m 98.389535,114.23848 11.123775,-5.71427"
       id="path4551"
       inkscape:connector-curvature="0"
       sodipodi:nodetypes="cc" />
    <path
       transform="matrix(0,0.10583333,-0.10583333,0,132.29979,111.0654)"
       inkscape:connector-curvature="0"
       style="fill:#ff0000;stroke:#000000;stroke-width:2.42277408px;stroke-linecap:butt;stroke-linejoin:miter;stroke-miterlimit:29;stroke-dasharray:none;stroke-opacity:1"
       clip-path="url(#clipEmfPath2-8)"
       d="m 138.94609,29.739552 c 0,6.662628 -5.45124,12.11387 -12.11387,12.11387 -6.7232,0 -12.11387,-5.451242 -12.11387,-12.11387 0,-6.723198 5.39067,-12.113871 12.11387,-12.113871 6.66263,0 12.11387,5.390673 12.11387,12.113871 z"
       id="path8097" />
    <path
       transform="matrix(0,0.10583333,-0.10583333,0,132.29979,111.0654)"
       inkscape:connector-curvature="0"
       style="fill:#ff0000;stroke:#000000;stroke-width:2.42277408px;stroke-linecap:butt;stroke-linejoin:miter;stroke-miterlimit:29;stroke-dasharray:none;stroke-opacity:1"
       clip-path="url(#clipEmfPath2-8)"
       d="m 235.85706,29.739552 c 0,6.662628 -5.45125,12.11387 -12.11387,12.11387 -6.7232,0 -12.11387,-5.451242 -12.11387,-12.11387 0,-6.723198 5.39067,-12.113871 12.11387,-12.113871 6.66262,0 12.11387,5.390673 12.11387,12.113871 z"
       id="path8101" />
    <path
       transform="matrix(0,0.10583333,-0.10583333,0,132.29979,111.0654)"
       inkscape:connector-curvature="0"
       style="fill:#ff0000;stroke:#000000;stroke-width:2.42277408px;stroke-linecap:butt;stroke-linejoin:miter;stroke-miterlimit:29;stroke-dasharray:none;stroke-opacity:1"
       clip-path="url(#clipEmfPath2-8)"
       d="m 42.0957,126.58995 c 0,6.66262 -5.451242,12.11387 -12.113871,12.11387 -6.723198,0 -12.11387,-5.45125 -12.11387,-12.11387 0,-6.7232 5.390672,-12.11387 12.11387,-12.11387 6.662629,0 12.113871,5.39067 12.113871,12.11387 z"
       id="path8105" />
    <path
       transform="matrix(0,0.10583333,-0.10583333,0,132.29979,111.0654)"
       inkscape:connector-curvature="0"
       style="fill:#ff0000;stroke:#000000;stroke-width:2.42277408px;stroke-linecap:butt;stroke-linejoin:miter;stroke-miterlimit:29;stroke-dasharray:none;stroke-opacity:1"
       clip-path="url(#clipEmfPath2-8)"
       d="m 138.94609,126.58995 c 0,6.66262 -5.45124,12.11387 -12.11387,12.11387 -6.7232,0 -12.11387,-5.45125 -12.11387,-12.11387 0,-6.7232 5.39067,-12.11387 12.11387,-12.11387 6.66263,0 12.11387,5.39067 12.11387,12.11387 z"
       id="path8109" />
    <path
       transform="matrix(0,0.10583333,-0.10583333,0,132.29979,111.0654)"
       inkscape:connector-curvature="0"
       style="fill:#ff0000;stroke:#000000;stroke-width:2.42277408px;stroke-linecap:butt;stroke-linejoin:miter;stroke-miterlimit:29;stroke-dasharray:none;stroke-opacity:1"
       clip-path="url(#clipEmfPath2-8)"
       d="m 235.85706,126.58995 c 0,6.66262 -5.45125,12.11387 -12.11387,12.11387 -6.7232,0 -12.11387,-5.45125 -12.11387,-12.11387 0,-6.7232 5.39067,-12.11387 12.11387,-12.11387 6.66262,0 12.11387,5.39067 12.11387,12.11387 z"
       id="path8113" />
    <path
       transform="matrix(0,0.10583333,-0.10583333,0,132.3734,115.51499)"
       inkscape:connector-curvature="0"
       style="fill:#ff0000;stroke:#000000;stroke-width:2.42277408px;stroke-linecap:butt;stroke-linejoin:miter;stroke-miterlimit:29;stroke-dasharray:none;stroke-opacity:1"
       clip-path="url(#clipEmfPath2-8)"
       d="m 42.0957,223.50091 c 0,6.66263 -5.451242,12.11387 -12.113871,12.11387 -6.723198,0 -12.11387,-5.45124 -12.11387,-12.11387 0,-6.7232 5.390672,-12.11387 12.11387,-12.11387 6.662629,0 12.113871,5.39067 12.113871,12.11387 z"
       id="path8117" />
    <path
       transform="matrix(0,0.10583333,-0.10583333,0,132.3734,115.1643)"
       inkscape:connector-curvature="0"
       style="fill:#ff0000;stroke:#000000;stroke-width:2.42277408px;stroke-linecap:butt;stroke-linejoin:miter;stroke-miterlimit:29;stroke-dasharray:none;stroke-opacity:1"
       clip-path="url(#clipEmfPath2-8)"
       d="m 138.94609,223.50091 c 0,6.66263 -5.45124,12.11387 -12.11387,12.11387 -6.7232,0 -12.11387,-5.45124 -12.11387,-12.11387 0,-6.7232 5.39067,-12.11387 12.11387,-12.11387 6.66263,0 12.11387,5.39067 12.11387,12.11387 z"
       id="path8121" />
    <path
       transform="matrix(0,0.10583333,-0.10583333,0,132.3734,114.80717)"
       inkscape:connector-curvature="0"
       style="fill:#ff0000;stroke:#000000;stroke-width:2.42277408px;stroke-linecap:butt;stroke-linejoin:miter;stroke-miterlimit:29;stroke-dasharray:none;stroke-opacity:1"
       clip-path="url(#clipEmfPath2-8)"
       d="m 235.85706,223.50091 c 0,6.66263 -5.45125,12.11387 -12.11387,12.11387 -6.7232,0 -12.11387,-5.45124 -12.11387,-12.11387 0,-6.7232 5.39067,-12.11387 12.11387,-12.11387 6.66262,0 12.11387,5.39067 12.11387,12.11387 z"
       id="path8125" />
    <path
       transform="matrix(0,0.10583333,-0.10583333,0,132.29979,111.0654)"
       inkscape:connector-curvature="0"
       style="fill:#ff0000;stroke:#000000;stroke-width:2.42277408px;stroke-linecap:butt;stroke-linejoin:miter;stroke-miterlimit:29;stroke-dasharray:none;stroke-opacity:1"
       clip-path="url(#clipEmfPath2-8)"
       d="m 42.0957,320.41187 c 0,6.66263 -5.451242,12.11387 -12.113871,12.11387 -6.723198,0 -12.11387,-5.45124 -12.11387,-12.11387 0,-6.7232 5.390672,-12.11387 12.11387,-12.11387 6.662629,0 12.113871,5.39067 12.113871,12.11387 z"
       id="path8129" />
    <path
       transform="matrix(0,0.10583333,-0.10583333,0,132.29979,111.0654)"
       inkscape:connector-curvature="0"
       style="fill:#ff0000;stroke:#000000;stroke-width:2.42277408px;stroke-linecap:butt;stroke-linejoin:miter;stroke-miterlimit:29;stroke-dasharray:none;stroke-opacity:1"
       clip-path="url(#clipEmfPath2-8)"
       d="m 138.94609,320.41187 c 0,6.66263 -5.45124,12.11387 -12.11387,12.11387 -6.7232,0 -12.11387,-5.45124 -12.11387,-12.11387 0,-6.7232 5.39067,-12.11387 12.11387,-12.11387 6.66263,0 12.11387,5.39067 12.11387,12.11387 z"
       id="path8133" />
    <path
       transform="matrix(0,0.10583333,-0.10583333,0,132.29979,111.0654)"
       inkscape:connector-curvature="0"
       style="fill:#ff0000;stroke:#000000;stroke-width:2.42277408px;stroke-linecap:butt;stroke-linejoin:miter;stroke-miterlimit:29;stroke-dasharray:none;stroke-opacity:1"
       clip-path="url(#clipEmfPath2-8)"
       d="m 235.85706,320.41187 c 0,6.66263 -5.45125,12.11387 -12.11387,12.11387 -6.7232,0 -12.11387,-5.45124 -12.11387,-12.11387 0,-6.7232 5.39067,-12.11387 12.11387,-12.11387 6.66262,0 12.11387,5.39067 12.11387,12.11387 z"
       id="path8137" />
    <path
       transform="matrix(0,0.10583333,-0.10583333,0,132.29979,111.0654)"
       inkscape:connector-curvature="0"
       style="fill:#ff0000;stroke:#000000;stroke-width:2.42277408px;stroke-linecap:butt;stroke-linejoin:miter;stroke-miterlimit:29;stroke-dasharray:none;stroke-opacity:1"
       clip-path="url(#clipEmfPath2-8)"
       d="M 29.981829,41.853422 V 114.47608"
       id="path8139" />
    <path
       transform="matrix(0,0.10583333,-0.10583333,0,132.29979,111.0654)"
       inkscape:connector-curvature="0"
       style="fill:#ff0000;stroke:#000000;stroke-width:2.42277408px;stroke-linecap:butt;stroke-linejoin:miter;stroke-miterlimit:29;stroke-dasharray:none;stroke-opacity:1"
       clip-path="url(#clipEmfPath2-8)"
       d="M 126.83222,114.47608 V 41.853422"
       id="path8141" />
    <path
       transform="matrix(0,0.10583333,-0.10583333,0,132.29979,111.0654)"
       inkscape:connector-curvature="0"
       style="fill:#ff0000;stroke:#000000;stroke-width:2.42277408px;stroke-linecap:butt;stroke-linejoin:miter;stroke-miterlimit:29;stroke-dasharray:none;stroke-opacity:1"
       clip-path="url(#clipEmfPath2-8)"
       d="M 118.23137,117.9891 38.522108,38.27983"
       id="path8143" />
    <path
       transform="matrix(0,0.10583333,-0.10583333,0,132.29979,111.0654)"
       inkscape:connector-curvature="0"
       style="fill:#ff0000;stroke:#000000;stroke-width:2.42277408px;stroke-linecap:butt;stroke-linejoin:miter;stroke-miterlimit:29;stroke-dasharray:none;stroke-opacity:1"
       clip-path="url(#clipEmfPath2-8)"
       d="M 38.522108,117.9891 118.23137,38.27983"
       id="path8145" />
    <path
       transform="matrix(0,0.10583333,-0.10583333,0,132.29979,111.0654)"
       inkscape:connector-curvature="0"
       style="fill:#ff0000;stroke:#000000;stroke-width:2.42277408px;stroke-linecap:butt;stroke-linejoin:miter;stroke-miterlimit:29;stroke-dasharray:none;stroke-opacity:1"
       clip-path="url(#clipEmfPath2-8)"
       d="M 223.74319,41.853422 V 114.47608"
       id="path8147" />
    <path
       transform="matrix(0,0.10583333,-0.10583333,0,132.29979,111.0654)"
       inkscape:connector-curvature="0"
       style="fill:#ff0000;stroke:#000000;stroke-width:2.42277408px;stroke-linecap:butt;stroke-linejoin:miter;stroke-miterlimit:29;stroke-dasharray:none;stroke-opacity:1"
       clip-path="url(#clipEmfPath2-8)"
       d="M 215.14234,117.9891 135.3725,38.27983"
       id="path8149" />
    <path
       transform="matrix(0,0.10583333,-0.10583333,0,132.29979,111.0654)"
       inkscape:connector-curvature="0"
       style="fill:#ff0000;stroke:#000000;stroke-width:2.42277408px;stroke-linecap:butt;stroke-linejoin:miter;stroke-miterlimit:29;stroke-dasharray:none;stroke-opacity:1"
       clip-path="url(#clipEmfPath2-8)"
       d="M 215.14234,38.27983 135.3725,117.9891"
       id="path8151" />
    <path
       transform="matrix(0,0.10583333,-0.10583333,0,132.29979,111.0654)"
       inkscape:connector-curvature="0"
       style="fill:#ff0000;stroke:#000000;stroke-width:2.42277408px;stroke-linecap:butt;stroke-linejoin:miter;stroke-miterlimit:29;stroke-dasharray:none;stroke-opacity:1"
       clip-path="url(#clipEmfPath2-8)"
       d="m 29.981829,138.70382 v 72.68322"
       id="path8153" />
    <path
       transform="matrix(0,0.10583333,-0.10583333,0,132.29979,111.0654)"
       inkscape:connector-curvature="0"
       style="fill:#ff0000;stroke:#000000;stroke-width:2.42277408px;stroke-linecap:butt;stroke-linejoin:miter;stroke-miterlimit:29;stroke-dasharray:none;stroke-opacity:1"
       clip-path="url(#clipEmfPath2-8)"
       d="m 126.83222,138.70382 v 72.68322"
       id="path8155" />
    <path
       transform="matrix(0,0.10583333,-0.10583333,0,132.29979,111.0654)"
       inkscape:connector-curvature="0"
       style="fill:#ff0000;stroke:#000000;stroke-width:2.42277408px;stroke-linecap:butt;stroke-linejoin:miter;stroke-miterlimit:29;stroke-dasharray:none;stroke-opacity:1"
       clip-path="url(#clipEmfPath2-8)"
       d="M 118.23137,214.90006 38.522108,135.13022"
       id="path8157" />
    <path
       transform="matrix(0,0.10583333,-0.10583333,0,132.29979,111.0654)"
       inkscape:connector-curvature="0"
       style="fill:#ff0000;stroke:#000000;stroke-width:2.42277408px;stroke-linecap:butt;stroke-linejoin:miter;stroke-miterlimit:29;stroke-dasharray:none;stroke-opacity:1"
       clip-path="url(#clipEmfPath2-8)"
       d="M 118.23137,135.13022 38.522108,214.90006"
       id="path8159" />
    <path
       transform="matrix(0,0.10583333,-0.10583333,0,132.29979,111.0654)"
       inkscape:connector-curvature="0"
       style="fill:#ff0000;stroke:#000000;stroke-width:2.42277408px;stroke-linecap:butt;stroke-linejoin:miter;stroke-miterlimit:29;stroke-dasharray:none;stroke-opacity:1"
       clip-path="url(#clipEmfPath2-8)"
       d="M 223.74319,211.38704 V 138.70382"
       id="path8161" />
    <path
       transform="matrix(0,0.10583333,-0.10583333,0,132.29979,111.0654)"
       inkscape:connector-curvature="0"
       style="fill:#ff0000;stroke:#000000;stroke-width:2.42277408px;stroke-linecap:butt;stroke-linejoin:miter;stroke-miterlimit:29;stroke-dasharray:none;stroke-opacity:1"
       clip-path="url(#clipEmfPath2-8)"
       d="M 215.14234,214.90006 135.3725,135.13022"
       id="path8163" />
    <path
       transform="matrix(0,0.10583333,-0.10583333,0,132.29979,111.0654)"
       inkscape:connector-curvature="0"
       style="fill:#ff0000;stroke:#000000;stroke-width:2.42277408px;stroke-linecap:butt;stroke-linejoin:miter;stroke-miterlimit:29;stroke-dasharray:none;stroke-opacity:1"
       clip-path="url(#clipEmfPath2-8)"
       d="M 215.14234,135.13022 135.3725,214.90006"
       id="path8165" />
    <path
       transform="matrix(0,0.10583333,-0.10583333,0,132.29979,111.0654)"
       inkscape:connector-curvature="0"
       style="fill:#ff0000;stroke:#000000;stroke-width:2.42277408px;stroke-linecap:butt;stroke-linejoin:miter;stroke-miterlimit:29;stroke-dasharray:none;stroke-opacity:1"
       clip-path="url(#clipEmfPath2-8)"
       d="M 126.83222,308.298 V 235.61478"
       id="path8169" />
    <path
       transform="matrix(0,0.10583333,-0.10583333,0,132.29979,111.0654)"
       inkscape:connector-curvature="0"
       style="fill:#ff0000;stroke:#000000;stroke-width:2.42277408px;stroke-linecap:butt;stroke-linejoin:miter;stroke-miterlimit:29;stroke-dasharray:none;stroke-opacity:1"
       clip-path="url(#clipEmfPath2-8)"
       d="M 118.23137,311.81102 38.522108,232.04119"
       id="path8171" />
    <path
       transform="matrix(0,0.10583333,-0.10583333,0,132.29979,111.0654)"
       inkscape:connector-curvature="0"
       style="fill:#ff0000;stroke:#000000;stroke-width:2.42277408px;stroke-linecap:butt;stroke-linejoin:miter;stroke-miterlimit:29;stroke-dasharray:none;stroke-opacity:1"
       clip-path="url(#clipEmfPath2-8)"
       d="M 38.522108,311.81102 118.23137,232.04119"
       id="path8173" />
    <path
       transform="matrix(0,0.10583333,-0.10583333,0,132.29979,111.0654)"
       inkscape:connector-curvature="0"
       style="fill:#ff0000;stroke:#000000;stroke-width:2.42277408px;stroke-linecap:butt;stroke-linejoin:miter;stroke-miterlimit:29;stroke-dasharray:none;stroke-opacity:1"
       clip-path="url(#clipEmfPath2-8)"
       d="M 223.74319,235.61478 V 308.298"
       id="path8175" />
    <path
       transform="matrix(0,0.10583333,-0.10583333,0,132.29979,111.0654)"
       inkscape:connector-curvature="0"
       style="fill:#ff0000;stroke:#000000;stroke-width:2.42277408px;stroke-linecap:butt;stroke-linejoin:miter;stroke-miterlimit:29;stroke-dasharray:none;stroke-opacity:1"
       clip-path="url(#clipEmfPath2-8)"
       d="m 135.3725,232.04119 79.76984,79.76983"
       id="path8177" />
    <path
       transform="matrix(0,0.10583333,-0.10583333,0,132.29979,111.0654)"
       inkscape:connector-curvature="0"
       style="fill:#ff0000;stroke:#000000;stroke-width:2.42277408px;stroke-linecap:butt;stroke-linejoin:miter;stroke-miterlimit:29;stroke-dasharray:none;stroke-opacity:1"
       clip-path="url(#clipEmfPath2-8)"
       d="m 135.3725,311.81102 79.76984,-79.76983"
       id="path8179" />
    <path
       transform="matrix(0,0.10583333,-0.10583333,0,132.29979,111.0654)"
       inkscape:connector-curvature="0"
       style="fill:#ff0000;stroke:#000000;stroke-width:2.42277408px;stroke-linecap:butt;stroke-linejoin:miter;stroke-miterlimit:29;stroke-dasharray:none;stroke-opacity:1"
       clip-path="url(#clipEmfPath2-8)"
       d="M 40.823743,35.130224 212.90127,121.1387"
       id="path8181" />
    <path
       transform="matrix(0,0.10583333,-0.10583333,0,132.29979,111.0654)"
       inkscape:connector-curvature="0"
       style="fill:#ff0000;stroke:#000000;stroke-width:2.42277408px;stroke-linecap:butt;stroke-linejoin:miter;stroke-miterlimit:29;stroke-dasharray:none;stroke-opacity:1"
       clip-path="url(#clipEmfPath2-8)"
       d="M 212.90127,35.130224 40.823743,121.1387"
       id="path8183" />
    <path
       transform="matrix(0,0.10583333,-0.10583333,0,132.29979,111.0654)"
       inkscape:connector-curvature="0"
       style="fill:#ff0000;stroke:#000000;stroke-width:2.42277408px;stroke-linecap:butt;stroke-linejoin:miter;stroke-miterlimit:29;stroke-dasharray:none;stroke-opacity:1"
       clip-path="url(#clipEmfPath2-8)"
       d="M 40.823743,131.98062 212.90127,218.04967"
       id="path8185" />
    <path
       transform="matrix(0,0.10583333,-0.10583333,0,132.29979,111.0654)"
       inkscape:connector-curvature="0"
       style="fill:#ff0000;stroke:#000000;stroke-width:2.42277408px;stroke-linecap:butt;stroke-linejoin:miter;stroke-miterlimit:29;stroke-dasharray:none;stroke-opacity:1"
       clip-path="url(#clipEmfPath2-8)"
       d="M 212.90127,131.98062 40.823743,218.04967"
       id="path8187" />
    <path
       transform="matrix(0,0.10583333,-0.10583333,0,132.29979,111.0654)"
       inkscape:connector-curvature="0"
       style="fill:#ff0000;stroke:#000000;stroke-width:2.42277408px;stroke-linecap:butt;stroke-linejoin:miter;stroke-miterlimit:29;stroke-dasharray:none;stroke-opacity:1"
       clip-path="url(#clipEmfPath2-8)"
       d="M 40.823743,228.89158 212.90127,314.96063"
       id="path8189" />
    <path
       transform="matrix(0,0.10583333,-0.10583333,0,132.29979,111.0654)"
       inkscape:connector-curvature="0"
       style="fill:#ff0000;stroke:#000000;stroke-width:2.42277408px;stroke-linecap:butt;stroke-linejoin:miter;stroke-miterlimit:29;stroke-dasharray:none;stroke-opacity:1"
       clip-path="url(#clipEmfPath2-8)"
       d="M 212.90127,228.89158 40.823743,314.96063"
       id="path8191" />
    <path
       inkscape:connector-curvature="0"
       style="fill:#ff0000;stroke:#000000;stroke-width:0.25641024px;stroke-linecap:butt;stroke-linejoin:miter;stroke-miterlimit:29;stroke-dasharray:none;stroke-opacity:1"
       clip-path="url(#clipEmfPath2-8-5)"
       d="m 109.5133,109.80626 c -0.70512,0 -1.28205,-0.57692 -1.28205,-1.28205 0,-0.71153 0.57693,-1.28205 1.28205,-1.28205 0.71154,0 1.28206,0.57052 1.28206,1.28205 0,0.70513 -0.57052,1.28205 -1.28206,1.28205 z"
       id="path8105-2" />
  </g>
</svg>
