<?xml version="1.0" encoding="UTF-8"?><svg xmlns="http://www.w3.org/2000/svg" xmlns:xlink="http://www.w3.org/1999/xlink" fill-opacity="1" color-rendering="auto" color-interpolation="auto" text-rendering="auto" stroke="black" stroke-linecap="square" width="1378" stroke-miterlimit="10" shape-rendering="auto" stroke-opacity="1" fill="black" stroke-dasharray="none" font-weight="normal" stroke-width="1" height="408" font-family="'Dialog'" font-style="normal" stroke-linejoin="miter" font-size="12px" stroke-dashoffset="0" image-rendering="auto">
  <!--Generated by ySVG 2.6-->
  <defs id="genericDefs"/>
  <g>
    <defs id="defs1">
      <clipPath clipPathUnits="userSpaceOnUse" id="clipPath1">
        <path d="M0 0 L1378 0 L1378 408 L0 408 L0 0 Z"/>
      </clipPath>
      <clipPath clipPathUnits="userSpaceOnUse" id="clipPath2">
        <path d="M-15 -9 L1363 -9 L1363 399 L-15 399 L-15 -9 Z"/>
      </clipPath>
    </defs>
    <g fill="white" text-rendering="geometricPrecision" shape-rendering="geometricPrecision" transform="translate(15,9)" stroke="white">
      <rect x="-15" width="1378" height="408" y="-9" clip-path="url(#clipPath2)" stroke="none"/>
    </g>
    <g fill="blue" text-rendering="geometricPrecision" shape-rendering="geometricPrecision" transform="matrix(1,0,0,1,15,9)" stroke="blue">
      <rect x="386.25" y="10" clip-path="url(#clipPath2)" width="30" rx="4" ry="4" height="10" stroke="none"/>
      <rect x="607.5" y="70" clip-path="url(#clipPath2)" width="30" rx="4" ry="4" height="10" stroke="none"/>
      <rect x="847.5" y="130" clip-path="url(#clipPath2)" width="30" rx="4" ry="4" height="10" stroke="none"/>
      <rect x="115" y="70" clip-path="url(#clipPath2)" width="30" rx="4" ry="4" height="10" stroke="none"/>
      <rect x="997.5" y="190" clip-path="url(#clipPath2)" width="30" rx="4" ry="4" height="10" stroke="none"/>
      <rect x="877.5" y="190" clip-path="url(#clipPath2)" width="30" rx="4" ry="4" height="10" stroke="none"/>
      <rect x="286.25" y="130" clip-path="url(#clipPath2)" width="30" rx="4" ry="4" height="10" stroke="none"/>
      <rect x="817.5" y="190" clip-path="url(#clipPath2)" width="30" rx="4" ry="4" height="10" stroke="none"/>
      <rect x="286.25" y="190" clip-path="url(#clipPath2)" width="30" rx="4" ry="4" height="10" stroke="none"/>
      <rect x="1277.5" y="250" clip-path="url(#clipPath2)" width="30" rx="4" ry="4" height="10" stroke="none"/>
      <rect x="167.5" y="130" clip-path="url(#clipPath2)" width="30" rx="4" ry="4" height="10" stroke="none"/>
      <rect x="62.5" y="130" clip-path="url(#clipPath2)" width="30" rx="4" ry="4" height="10" stroke="none"/>
      <rect x="1037.5" y="250" clip-path="url(#clipPath2)" width="30" rx="4" ry="4" height="10" stroke="none"/>
      <rect x="507.5" y="250" clip-path="url(#clipPath2)" width="30" rx="4" ry="4" height="10" stroke="none"/>
      <rect x="1137.5" y="310" clip-path="url(#clipPath2)" width="30" rx="4" ry="4" height="10" stroke="none"/>
      <rect x="1197.5" y="370" clip-path="url(#clipPath2)" width="30" rx="4" ry="4" height="10" stroke="none"/>
      <rect x="1037.5" y="310" clip-path="url(#clipPath2)" width="30" rx="4" ry="4" height="10" stroke="none"/>
      <rect x="957.5" y="250" clip-path="url(#clipPath2)" width="30" rx="4" ry="4" height="10" stroke="none"/>
      <rect x="340" y="250" clip-path="url(#clipPath2)" width="30" rx="4" ry="4" height="10" stroke="none"/>
      <rect x="1277.5" y="310" clip-path="url(#clipPath2)" width="30" rx="4" ry="4" height="10" stroke="none"/>
      <rect x="837.5" y="250" clip-path="url(#clipPath2)" width="30" rx="4" ry="4" height="10" stroke="none"/>
      <rect x="837.5" y="310" clip-path="url(#clipPath2)" width="30" rx="4" ry="4" height="10" stroke="none"/>
      <rect x="112.5" y="190" clip-path="url(#clipPath2)" width="30" rx="4" ry="4" height="10" stroke="none"/>
      <rect x="1317.5" y="370" clip-path="url(#clipPath2)" width="30" rx="4" ry="4" height="10" stroke="none"/>
      <rect x="657.5" y="130" clip-path="url(#clipPath2)" width="30" rx="4" ry="4" height="10" stroke="none"/>
      <rect x="857.5" y="370" clip-path="url(#clipPath2)" width="30" rx="4" ry="4" height="10" stroke="none"/>
      <rect x="697.5" y="190" clip-path="url(#clipPath2)" width="30" rx="4" ry="4" height="10" stroke="none"/>
      <rect x="447.5" y="310" clip-path="url(#clipPath2)" width="30" rx="4" ry="4" height="10" stroke="none"/>
      <rect x="737.5" y="190" clip-path="url(#clipPath2)" width="30" rx="4" ry="4" height="10" stroke="none"/>
      <rect x="152.5" y="250" clip-path="url(#clipPath2)" width="30" rx="4" ry="4" height="10" stroke="none"/>
      <rect x="557.5" y="130" clip-path="url(#clipPath2)" width="30" rx="4" ry="4" height="10" stroke="none"/>
      <rect x="657.5" y="190" clip-path="url(#clipPath2)" width="30" rx="4" ry="4" height="10" stroke="none"/>
      <rect x="367.5" y="310" clip-path="url(#clipPath2)" width="30" rx="4" ry="4" height="10" stroke="none"/>
      <rect x="407.5" y="370" clip-path="url(#clipPath2)" width="30" rx="4" ry="4" height="10" stroke="none"/>
      <rect x="657.5" y="250" clip-path="url(#clipPath2)" width="30" rx="4" ry="4" height="10" stroke="none"/>
      <rect x="617.5" y="190" clip-path="url(#clipPath2)" width="30" rx="4" ry="4" height="10" stroke="none"/>
      <rect x="1157.5" y="370" clip-path="url(#clipPath2)" width="30" rx="4" ry="4" height="10" stroke="none"/>
      <rect x="112.5" y="250" clip-path="url(#clipPath2)" width="30" rx="4" ry="4" height="10" stroke="none"/>
      <rect x="0" y="130" clip-path="url(#clipPath2)" width="30" rx="4" ry="4" height="10" stroke="none"/>
      <rect x="917.5" y="250" clip-path="url(#clipPath2)" width="30" rx="4" ry="4" height="10" stroke="none"/>
      <rect x="1277.5" y="370" clip-path="url(#clipPath2)" width="30" rx="4" ry="4" height="10" stroke="none"/>
      <rect x="957.5" y="310" clip-path="url(#clipPath2)" width="30" rx="4" ry="4" height="10" stroke="none"/>
      <rect x="997.5" y="310" clip-path="url(#clipPath2)" width="30" rx="4" ry="4" height="10" stroke="none"/>
      <rect x="507.5" y="310" clip-path="url(#clipPath2)" width="30" rx="4" ry="4" height="10" stroke="none"/>
      <rect x="1037.5" y="370" clip-path="url(#clipPath2)" width="30" rx="4" ry="4" height="10" stroke="none"/>
      <rect x="577.5" y="190" clip-path="url(#clipPath2)" width="30" rx="4" ry="4" height="10" stroke="none"/>
      <rect x="367.5" y="370" clip-path="url(#clipPath2)" width="30" rx="4" ry="4" height="10" stroke="none"/>
      <rect x="1117.5" y="370" clip-path="url(#clipPath2)" width="30" rx="4" ry="4" height="10" stroke="none"/>
      <rect x="757.5" y="250" clip-path="url(#clipPath2)" width="30" rx="4" ry="4" height="10" stroke="none"/>
      <rect x="717.5" y="250" clip-path="url(#clipPath2)" width="30" rx="4" ry="4" height="10" stroke="none"/>
      <rect x="112.5" y="310" clip-path="url(#clipPath2)" width="30" rx="4" ry="4" height="10" stroke="none"/>
      <rect x="1237.5" y="370" clip-path="url(#clipPath2)" width="30" rx="4" ry="4" height="10" stroke="none"/>
      <rect x="527.5" y="370" clip-path="url(#clipPath2)" width="30" rx="4" ry="4" height="10" stroke="none"/>
      <rect x="797.5" y="250" clip-path="url(#clipPath2)" width="30" rx="4" ry="4" height="10" stroke="none"/>
      <rect x="1077.5" y="370" clip-path="url(#clipPath2)" width="30" rx="4" ry="4" height="10" stroke="none"/>
      <rect x="52.5" y="250" clip-path="url(#clipPath2)" width="30" rx="4" ry="4" height="10" stroke="none"/>
      <rect x="232.5" y="250" clip-path="url(#clipPath2)" width="30" rx="4" ry="4" height="10" stroke="none"/>
      <rect x="877.5" y="250" clip-path="url(#clipPath2)" width="30" rx="4" ry="4" height="10" stroke="none"/>
      <rect x="327.5" y="370" clip-path="url(#clipPath2)" width="30" rx="4" ry="4" height="10" stroke="none"/>
      <rect x="497.5" y="130" clip-path="url(#clipPath2)" width="30" rx="4" ry="4" height="10" stroke="none"/>
      <rect x="167.5" y="190" clip-path="url(#clipPath2)" width="30" rx="4" ry="4" height="10" stroke="none"/>
      <rect x="312.5" y="310" clip-path="url(#clipPath2)" width="30" rx="4" ry="4" height="10" stroke="none"/>
      <rect x="72.5" y="310" clip-path="url(#clipPath2)" width="30" rx="4" ry="4" height="10" stroke="none"/>
      <rect x="497.5" y="190" clip-path="url(#clipPath2)" width="30" rx="4" ry="4" height="10" stroke="none"/>
      <rect x="32.5" y="310" clip-path="url(#clipPath2)" width="30" rx="4" ry="4" height="10" stroke="none"/>
      <rect x="192.5" y="250" clip-path="url(#clipPath2)" width="30" rx="4" ry="4" height="10" stroke="none"/>
      <rect x="817.5" y="370" clip-path="url(#clipPath2)" width="30" rx="4" ry="4" height="10" stroke="none"/>
      <rect x="12.5" y="190" clip-path="url(#clipPath2)" width="30" rx="4" ry="4" height="10" stroke="none"/>
      <rect x="617.5" y="250" clip-path="url(#clipPath2)" width="30" rx="4" ry="4" height="10" stroke="none"/>
      <rect x="272.5" y="310" clip-path="url(#clipPath2)" width="30" rx="4" ry="4" height="10" stroke="none"/>
      <rect x="617.5" y="310" clip-path="url(#clipPath2)" width="30" rx="4" ry="4" height="10" stroke="none"/>
      <rect x="12.5" y="250" clip-path="url(#clipPath2)" width="30" rx="4" ry="4" height="10" stroke="none"/>
      <rect x="577.5" y="250" clip-path="url(#clipPath2)" width="30" rx="4" ry="4" height="10" stroke="none"/>
      <rect x="72.5" y="370" clip-path="url(#clipPath2)" width="30" rx="4" ry="4" height="10" stroke="none"/>
      <rect x="717.5" y="310" clip-path="url(#clipPath2)" width="30" rx="4" ry="4" height="10" stroke="none"/>
      <rect x="232.5" y="310" clip-path="url(#clipPath2)" width="30" rx="4" ry="4" height="10" stroke="none"/>
      <rect x="537.5" y="190" clip-path="url(#clipPath2)" width="30" rx="4" ry="4" height="10" stroke="none"/>
      <rect x="447.5" y="370" clip-path="url(#clipPath2)" width="30" rx="4" ry="4" height="10" stroke="none"/>
      <rect x="487.5" y="370" clip-path="url(#clipPath2)" width="30" rx="4" ry="4" height="10" stroke="none"/>
      <rect x="152.5" y="310" clip-path="url(#clipPath2)" width="30" rx="4" ry="4" height="10" stroke="none"/>
    </g>
    <g text-rendering="geometricPrecision" stroke-miterlimit="1.45" shape-rendering="geometricPrecision" transform="matrix(1,0,0,1,15,9)" stroke-linecap="butt">
      <path fill="none" d="M415.1591 18.772 L608.6047 71.2318" clip-path="url(#clipPath2)"/>
      <path fill="none" d="M636.5918 78.5229 L848.4083 131.4771" clip-path="url(#clipPath2)"/>
      <path fill="none" d="M386.9127 18.1714 L144.3322 71.8298" clip-path="url(#clipPath2)"/>
      <path fill="none" d="M874.6216 139.8486 L1000.4155 190.1662" clip-path="url(#clipPath2)"/>
      <path fill="none" d="M865.0049 140.0098 L889.9894 189.9789" clip-path="url(#clipPath2)"/>
      <path fill="none" d="M142.919 79.5264 L288.3779 130.4901" clip-path="url(#clipPath2)"/>
      <path fill="none" d="M859.9951 140.0098 L835.0106 189.9789" clip-path="url(#clipPath2)"/>
      <path fill="none" d="M301.25 140.0098 L301.25 189.9789" clip-path="url(#clipPath2)"/>
      <path fill="none" d="M1026.8896 198.0835 L1278.0717 251.9082" clip-path="url(#clipPath2)"/>
      <path fill="none" d="M134.3835 80.0098 L178.1066 129.9789" clip-path="url(#clipPath2)"/>
      <path fill="none" d="M125.6165 80.0098 L81.8934 129.9789" clip-path="url(#clipPath2)"/>
      <path fill="none" d="M1015.8398 200.0098 L1049.1526 249.9789" clip-path="url(#clipPath2)"/>
      <path fill="none" d="M315.1591 198.772 L508.6047 251.2318" clip-path="url(#clipPath2)"/>
      <path fill="none" d="M1060.8252 259.9951 L1144.1517 309.991" clip-path="url(#clipPath2)"/>
      <path fill="none" d="M1157.5098 320.0098 L1207.4789 369.9789" clip-path="url(#clipPath2)"/>
      <path fill="none" d="M1052.5 260.0098 L1052.5 309.9789" clip-path="url(#clipPath2)"/>
      <path fill="none" d="M1009.1602 200.0098 L975.8474 249.9789" clip-path="url(#clipPath2)"/>
      <path fill="none" d="M305.7379 200.0098 L350.502 249.9789" clip-path="url(#clipPath2)"/>
      <path fill="none" d="M1292.5 260.0098 L1292.5 309.9789" clip-path="url(#clipPath2)"/>
      <path fill="none" d="M834.1699 200.0098 L850.8263 249.9789" clip-path="url(#clipPath2)"/>
      <path fill="none" d="M852.5 260.0098 L852.5 309.9789" clip-path="url(#clipPath2)"/>
      <path fill="none" d="M81.6748 140.0098 L123.3158 189.9789" clip-path="url(#clipPath2)"/>
      <path fill="none" d="M1295.8398 320.0098 L1329.1526 369.9789" clip-path="url(#clipPath2)"/>
      <path fill="none" d="M626.6748 80.0098 L668.3158 129.9789" clip-path="url(#clipPath2)"/>
      <path fill="none" d="M854.1699 320.0098 L870.8263 369.9789" clip-path="url(#clipPath2)"/>
      <path fill="none" d="M675.8398 140.0098 L709.1526 189.9789" clip-path="url(#clipPath2)"/>
      <path fill="none" d="M363.9496 259.9951 L453.5256 309.991" clip-path="url(#clipPath2)"/>
      <path fill="none" d="M853.3423 139.9951 L761.6832 189.991" clip-path="url(#clipPath2)"/>
      <path fill="none" d="M130.8398 200.0098 L164.1526 249.9789" clip-path="url(#clipPath2)"/>
      <path fill="none" d="M618.3252 80.0098 L576.6842 129.9789" clip-path="url(#clipPath2)"/>
      <path fill="none" d="M672.5 140.0098 L672.5 189.9789" clip-path="url(#clipPath2)"/>
      <path fill="none" d="M357.2961 260.0098 L380.1987 309.9789" clip-path="url(#clipPath2)"/>
      <path fill="none" d="M385.8398 320.0098 L419.1526 369.9789" clip-path="url(#clipPath2)"/>
      <path fill="none" d="M672.5 200.0098 L672.5 249.9789" clip-path="url(#clipPath2)"/>
      <path fill="none" d="M669.1602 140.0098 L635.8474 189.9789" clip-path="url(#clipPath2)"/>
      <path fill="none" d="M1154.1699 320.0098 L1170.8263 369.9789" clip-path="url(#clipPath2)"/>
      <path fill="none" d="M127.5 200.0098 L127.5 249.9789" clip-path="url(#clipPath2)"/>
      <path fill="none" d="M120.426 79.9951 L24.6006 129.991" clip-path="url(#clipPath2)"/>
      <path fill="none" d="M1005.8203 200.0098 L939.1948 249.9789" clip-path="url(#clipPath2)"/>
      <path fill="none" d="M1292.5 320.0098 L1292.5 369.9789" clip-path="url(#clipPath2)"/>
      <path fill="none" d="M972.5 260.0098 L972.5 309.9789" clip-path="url(#clipPath2)"/>
      <path fill="none" d="M1049.1602 260.0098 L1015.8474 309.9789" clip-path="url(#clipPath2)"/>
      <path fill="none" d="M522.5 260.0098 L522.5 309.9789" clip-path="url(#clipPath2)"/>
      <path fill="none" d="M1052.5 320.0098 L1052.5 369.9789" clip-path="url(#clipPath2)"/>
      <path fill="none" d="M574.1699 140.0098 L590.8263 189.9789" clip-path="url(#clipPath2)"/>
      <path fill="none" d="M382.5 320.0098 L382.5 369.9789" clip-path="url(#clipPath2)"/>
      <path fill="none" d="M1150.8301 320.0098 L1134.1737 369.9789" clip-path="url(#clipPath2)"/>
      <path fill="none" d="M754.1699 200.0098 L770.8263 249.9789" clip-path="url(#clipPath2)"/>
      <path fill="none" d="M750.8301 200.0098 L734.1737 249.9789" clip-path="url(#clipPath2)"/>
      <path fill="none" d="M127.5 260.0098 L127.5 309.9789" clip-path="url(#clipPath2)"/>
      <path fill="none" d="M1289.1602 320.0098 L1255.8474 369.9789" clip-path="url(#clipPath2)"/>
      <path fill="none" d="M524.1699 320.0098 L540.8263 369.9789" clip-path="url(#clipPath2)"/>
      <path fill="none" d="M830.8301 200.0098 L814.1737 249.9789" clip-path="url(#clipPath2)"/>
      <path fill="none" d="M1147.4902 320.0098 L1097.5211 369.9789" clip-path="url(#clipPath2)"/>
      <path fill="none" d="M122.4902 200.0098 L72.5211 249.9789" clip-path="url(#clipPath2)"/>
      <path fill="none" d="M296.7621 200.0098 L251.998 249.9789" clip-path="url(#clipPath2)"/>
      <path fill="none" d="M892.5 200.0098 L892.5 249.9789" clip-path="url(#clipPath2)"/>
      <path fill="none" d="M379.1602 320.0098 L345.8474 369.9789" clip-path="url(#clipPath2)"/>
      <path fill="none" d="M613.3423 79.9951 L521.6832 129.991" clip-path="url(#clipPath2)"/>
      <path fill="none" d="M182.5 140.0098 L182.5 189.9789" clip-path="url(#clipPath2)"/>
      <path fill="none" d="M352.7039 260.0098 L329.8013 309.9789" clip-path="url(#clipPath2)"/>
      <path fill="none" d="M69.1699 260.0098 L85.8263 309.9789" clip-path="url(#clipPath2)"/>
      <path fill="none" d="M512.5 140.0098 L512.5 189.9789" clip-path="url(#clipPath2)"/>
      <path fill="none" d="M65.8301 260.0098 L49.1737 309.9789" clip-path="url(#clipPath2)"/>
      <path fill="none" d="M293.4451 199.9951 L215.3475 249.9776" clip-path="url(#clipPath2)"/>
      <path fill="none" d="M850.8301 320.0098 L834.1737 369.9789" clip-path="url(#clipPath2)"/>
      <path fill="none" d="M73.3252 140.0098 L31.6842 189.9789" clip-path="url(#clipPath2)"/>
      <path fill="none" d="M632.5 200.0098 L632.5 249.9789" clip-path="url(#clipPath2)"/>
      <path fill="none" d="M349.364 260.0098 L293.1487 309.9789" clip-path="url(#clipPath2)"/>
      <path fill="none" d="M632.5 260.0098 L632.5 309.9789" clip-path="url(#clipPath2)"/>
      <path fill="none" d="M27.5 200.0098 L27.5 249.9789" clip-path="url(#clipPath2)"/>
      <path fill="none" d="M592.5 200.0098 L592.5 249.9789" clip-path="url(#clipPath2)"/>
      <path fill="none" d="M87.5 320.0098 L87.5 369.9789" clip-path="url(#clipPath2)"/>
      <path fill="none" d="M732.5 260.0098 L732.5 309.9789" clip-path="url(#clipPath2)"/>
      <path fill="none" d="M247.5 260.0098 L247.5 309.9789" clip-path="url(#clipPath2)"/>
      <path fill="none" d="M570.8301 140.0098 L554.1737 189.9789" clip-path="url(#clipPath2)"/>
      <path fill="none" d="M462.5 320.0098 L462.5 369.9789" clip-path="url(#clipPath2)"/>
      <path fill="none" d="M520.8301 320.0098 L504.1737 369.9789" clip-path="url(#clipPath2)"/>
      <path fill="none" d="M167.5 260.0098 L167.5 309.9789" clip-path="url(#clipPath2)"/>
    </g>
  </g>
</svg>
