<?xml version="1.0" encoding="UTF-8" standalone="no"?>
<!-- Created with Inkscape (http://www.inkscape.org/) -->

<svg
   width="574.15521"
   height="518.23169"
   viewBox="0 0 151.9119 137.11547"
   version="1.1"
   id="svg8"
   inkscape:version="1.2.1 (1:1.2.1+202210291244+9c6d41e410)"
   sodipodi:docname="term-rewriting-and-all-that.svg"
   inkscape:export-filename="term-rewriting-and-all-that.png"
   inkscape:export-xdpi="192"
   inkscape:export-ydpi="192"
   xmlns:inkscape="http://www.inkscape.org/namespaces/inkscape"
   xmlns:sodipodi="http://sodipodi.sourceforge.net/DTD/sodipodi-0.dtd"
   xmlns="http://www.w3.org/2000/svg"
   xmlns:svg="http://www.w3.org/2000/svg"
   xmlns:rdf="http://www.w3.org/1999/02/22-rdf-syntax-ns#"
   xmlns:cc="http://creativecommons.org/ns#"
   xmlns:dc="http://purl.org/dc/elements/1.1/">
  <defs
     id="defs2">
    <marker
       style="overflow:visible"
       id="Arrow2"
       refX="0"
       refY="0"
       orient="auto-start-reverse"
       inkscape:stockid="Arrow2"
       markerWidth="12.7"
       markerHeight="9.2363634"
       viewBox="0 0 7.7 5.6"
       inkscape:isstock="true"
       inkscape:collect="always"
       preserveAspectRatio="xMidYMid">
      <path
         transform="scale(0.7)"
         d="M -2,-4 9,0 -2,4 c 2,-2.33 2,-5.66 0,-8 z"
         style="fill:context-stroke;fill-rule:evenodd;stroke:none"
         id="arrow2L" />
    </marker>
    <clipPath
       id="clipPath7594">
      <path
         d="M 0,0 H 6 V 9.964844 H 0 Z m 0,0"
         id="path8533" />
    </clipPath>
    <clipPath
       id="clipPath654">
      <path
         d="M 6,6 H 8 V 9.964844 H 6 Z m 0,0"
         id="path3779" />
    </clipPath>
    <clipPath
       id="clipPath5497">
      <path
         d="m 10,0 h 6 v 9.964844 h -6 z m 0,0"
         id="path8930" />
    </clipPath>
    <clipPath
       id="clipPath979">
      <path
         d="m 20,6 h 2 v 3.964844 h -2 z m 0,0"
         id="path6821" />
    </clipPath>
    <clipPath
       id="clipPath7646">
      <path
         d="M 24,6 H 34 V 9.964844 H 24 Z m 0,0"
         id="path3266" />
    </clipPath>
    <clipPath
       id="clipPath5971">
      <path
         d="m 36,0 h 6 v 9.964844 h -6 z m 0,0"
         id="path6542" />
    </clipPath>
    <clipPath
       id="clipPath1321">
      <path
         d="m 41,4 h 5 v 5.964844 h -5 z m 0,0"
         id="path9752" />
    </clipPath>
    <clipPath
       id="clipPath5539">
      <path
         d="m 68,0 h 2 v 9.964844 h -2 z m 0,0"
         id="path4993" />
    </clipPath>
    <clipPath
       id="clipPath1116">
      <path
         d="m 83,6 h 2 v 3.964844 h -2 z m 0,0"
         id="path3578" />
    </clipPath>
    <clipPath
       id="clipPath888">
      <path
         d="M 88,6 H 98 V 9.964844 H 88 Z m 0,0"
         id="path1921" />
    </clipPath>
    <clipPath
       id="clipPath7123">
      <path
         d="m 108,5 h 5 v 4.964844 h -5 z m 0,0"
         id="path42" />
    </clipPath>
    <clipPath
       id="clipPath6004">
      <path
         d="m 114,0 h 2 v 9.964844 h -2 z m 0,0"
         id="path29" />
    </clipPath>
    <clipPath
       id="clipPath8588">
      <path
         d="m 96,0 h 3 v 14.347656 h -3 z m 0,0"
         id="path7940" />
    </clipPath>
    <clipPath
       id="clipPath4571">
      <path
         d="m 159,0 h 3 v 14.347656 h -3 z m 0,0"
         id="path7745" />
    </clipPath>
    <clipPath
       id="clipPath3044">
      <path
         d="m 114,0 h 3 v 17.1875 h -3 z m 0,0"
         id="path5994" />
    </clipPath>
    <clipPath
       id="clipPath5101">
      <path
         d="m 187,0 h 4 v 17.1875 h -4 z m 0,0"
         id="path635" />
    </clipPath>
    <clipPath
       id="clipPath1920">
      <path
         d="m 33,0 h 4 v 17.214844 h -4 z m 0,0"
         id="path297" />
    </clipPath>
    <clipPath
       id="clipPath2185">
      <path
         d="m 97,0 h 5 v 17.214844 h -5 z m 0,0"
         id="path3606" />
    </clipPath>
    <clipPath
       id="clipPath1180">
      <path
         d="m 33,0 h 4 v 17.214844 h -4 z m 0,0"
         id="path4408" />
    </clipPath>
    <clipPath
       id="clipPath9356">
      <path
         d="m 97,0 h 5 v 17.214844 h -5 z m 0,0"
         id="path4959" />
    </clipPath>
    <clipPath
       id="clipPath8851">
      <path
         d="m 33,0 h 4 v 17.214844 h -4 z m 0,0"
         id="path6854" />
    </clipPath>
    <clipPath
       id="clipPath9550">
      <path
         d="m 97,0 h 5 v 17.214844 h -5 z m 0,0"
         id="path2652" />
    </clipPath>
    <clipPath
       id="clipPath5546">
      <path
         d="m 109,0 h 6.91016 V 13 H 109 Z m 0,0"
         id="path728" />
    </clipPath>
    <marker
       style="overflow:visible"
       id="Arrow2-3"
       refX="0"
       refY="0"
       orient="auto-start-reverse"
       inkscape:stockid="Arrow2"
       markerWidth="12.7"
       markerHeight="9.2363634"
       viewBox="0 0 7.7 5.6"
       inkscape:isstock="true"
       inkscape:collect="always"
       preserveAspectRatio="xMidYMid">
      <path
         transform="scale(0.7)"
         d="M -2,-4 9,0 -2,4 c 2,-2.33 2,-5.66 0,-8 z"
         style="fill:context-stroke;fill-rule:evenodd;stroke:none"
         id="arrow2L-6" />
    </marker>
    <marker
       style="overflow:visible"
       id="Arrow2-3-1"
       refX="0"
       refY="0"
       orient="auto-start-reverse"
       inkscape:stockid="Arrow2"
       markerWidth="12.7"
       markerHeight="9.2363634"
       viewBox="0 0 7.7 5.6"
       inkscape:isstock="true"
       inkscape:collect="always"
       preserveAspectRatio="xMidYMid">
      <path
         transform="scale(0.7)"
         d="M -2,-4 9,0 -2,4 c 2,-2.33 2,-5.66 0,-8 z"
         style="fill:context-stroke;fill-rule:evenodd;stroke:none"
         id="arrow2L-6-2" />
    </marker>
  </defs>
  <sodipodi:namedview
     id="base"
     pagecolor="#ffffff"
     bordercolor="#666666"
     borderopacity="1.0"
     inkscape:pageopacity="1"
     inkscape:pageshadow="2"
     inkscape:zoom="1"
     inkscape:cx="502"
     inkscape:cy="331.5"
     inkscape:document-units="px"
     inkscape:current-layer="layer1"
     showgrid="false"
     inkscape:window-width="1920"
     inkscape:window-height="1054"
     inkscape:window-x="0"
     inkscape:window-y="0"
     inkscape:window-maximized="1"
     inkscape:showpageshadow="0"
     inkscape:pagecheckerboard="0"
     inkscape:deskcolor="#d1d1d1" />
  <metadata
     id="metadata5">
    <rdf:RDF>
      <cc:Work
         rdf:about="">
        <dc:format>image/svg+xml</dc:format>
        <dc:type
           rdf:resource="http://purl.org/dc/dcmitype/StillImage" />
      </cc:Work>
    </rdf:RDF>
  </metadata>
  <g
     inkscape:label="Layer 1"
     inkscape:groupmode="layer"
     id="layer1"
     transform="translate(-20.464613,-13.756821)">
    <text
       xml:space="preserve"
       style="font-style:normal;font-weight:normal;font-size:10.5833px;line-height:1.25;font-family:sans-serif;letter-spacing:0px;word-spacing:0px;fill:#000000;fill-opacity:1;stroke:none;stroke-width:0.264583"
       x="26.587315"
       y="95.526436"
       id="text3715"><tspan
         sodipodi:role="line"
         id="tspan3713"
         x="26.587315"
         y="95.526436"
         style="font-style:normal;font-variant:normal;font-weight:normal;font-stretch:normal;font-size:5.64444px;font-family:sans-serif;-inkscape-font-specification:'sans-serif, Normal';font-variant-ligatures:normal;font-variant-caps:normal;font-variant-numeric:normal;font-feature-settings:normal;text-align:start;writing-mode:lr-tb;text-anchor:start;stroke-width:0.264583">Gröbner bases (用 Buchberger 算法求出)  <tspan
   style="font-size:4.23333px;fill:#ff0000"
   id="tspan5061">(Ch 8)</tspan></tspan></text>
    <text
       xml:space="preserve"
       style="font-style:normal;font-variant:normal;font-weight:normal;font-stretch:normal;font-size:5.64444px;line-height:1.25;font-family:sans-serif;-inkscape-font-specification:'sans-serif, Normal';font-variant-ligatures:normal;font-variant-caps:normal;font-variant-numeric:normal;font-feature-settings:normal;text-align:start;letter-spacing:0px;word-spacing:0px;writing-mode:lr-tb;text-anchor:start;fill:#000000;fill-opacity:1;stroke:none;stroke-width:0.264583"
       x="42.197731"
       y="112.45979"
       id="text3719"><tspan
         sodipodi:role="line"
         x="42.197731"
         y="112.45979"
         style="stroke-width:0.264583"
         id="tspan3725">可以快速解决 ideal membership 问题：</tspan></text>
    <g
       inkscape:label=""
       transform="translate(54.406546,117.19428)"
       id="g932">
      <g
         id="surface1"
         transform="matrix(0.352778,0,0,0.352778,-0.308681,-0.00224907)">
        <g
           style="fill:#000000;fill-opacity:1"
           id="g62">
          <g
             id="use60"
             transform="translate(0,12.897)">
            <path
               style="stroke:none"
               d="m 7.671875,-6.921875 c 0.359375,0 0.484375,0 0.484375,-0.328125 0,-0.171875 -0.125,-0.171875 -0.4375,-0.171875 H 6.3125 c 0.328125,-1.765625 0.578125,-3 0.71875,-3.546875 0.09375,-0.40625 0.453125,-0.8125 0.90625,-0.8125 0.359375,0 0.71875,0.15625 0.890625,0.3125 -0.671875,0.0625 -0.875,0.5625 -0.875,0.859375 0,0.34375 0.265625,0.546875 0.59375,0.546875 0.34375,0 0.859375,-0.28125 0.859375,-0.9375 0,-0.71875 -0.734375,-1.125 -1.484375,-1.125 -0.734375,0 -1.46875,0.546875 -1.8125,1.21875 -0.3125,0.609375 -0.484375,1.234375 -0.875,3.484375 h -1.15625 c -0.328125,0 -0.5,0 -0.5,0.3125 0,0.1875 0.109375,0.1875 0.453125,0.1875 H 5.125 c -0.296875,1.59375 -1.015625,5.5 -1.40625,7.328125 -0.296875,1.5 -0.546875,2.765625 -1.40625,2.765625 -0.0625,0 -0.5625,0 -0.859375,-0.328125 0.875,-0.078125 0.875,-0.828125 0.875,-0.84375 0,-0.34375 -0.265625,-0.546875 -0.59375,-0.546875 -0.34375,0 -0.859375,0.28125 -0.859375,0.9375 0,0.75 0.765625,1.125 1.4375,1.125 1.75,0 2.46875,-3.15625 2.65625,-4.015625 0.3125,-1.328125 1.15625,-5.90625 1.25,-6.421875 z m 0,0"
               id="path153" />
          </g>
        </g>
        <g
           style="fill:#000000;fill-opacity:1"
           id="g66">
          <g
             id="use64"
             transform="translate(9.2033529,12.897)">
            <path
               style="stroke:none"
               d="m 3.359375,0.0625 c 0,-1 -0.328125,-1.734375 -1.03125,-1.734375 C 1.78125,-1.671875 1.5,-1.21875 1.5,-0.84375 1.5,-0.46875 1.75,0 2.34375,0 2.5625,0 2.75,-0.0625 2.90625,-0.21875 c 0.03125,-0.046875 0.0625,-0.046875 0.078125,-0.046875 0.03125,0 0.03125,0.25 0.03125,0.328125 0,0.578125 -0.109375,1.6875 -1.109375,2.8125 -0.1875,0.203125 -0.1875,0.234375 -0.1875,0.28125 0,0.078125 0.09375,0.171875 0.171875,0.171875 0.140625,0 1.46875,-1.28125 1.46875,-3.265625 z m 0,0"
               id="path157" />
          </g>
        </g>
        <g
           style="fill:#000000;fill-opacity:1"
           id="g70">
          <g
             id="use68"
             transform="translate(16.760914,12.897)">
            <path
               style="stroke:none"
               d="m 7.671875,-6.921875 c 0.359375,0 0.484375,0 0.484375,-0.328125 0,-0.171875 -0.125,-0.171875 -0.4375,-0.171875 H 6.3125 c 0.328125,-1.765625 0.578125,-3 0.71875,-3.546875 0.09375,-0.40625 0.453125,-0.8125 0.90625,-0.8125 0.359375,0 0.71875,0.15625 0.890625,0.3125 -0.671875,0.0625 -0.875,0.5625 -0.875,0.859375 0,0.34375 0.265625,0.546875 0.59375,0.546875 0.34375,0 0.859375,-0.28125 0.859375,-0.9375 0,-0.71875 -0.734375,-1.125 -1.484375,-1.125 -0.734375,0 -1.46875,0.546875 -1.8125,1.21875 -0.3125,0.609375 -0.484375,1.234375 -0.875,3.484375 h -1.15625 c -0.328125,0 -0.5,0 -0.5,0.3125 0,0.1875 0.109375,0.1875 0.453125,0.1875 H 5.125 c -0.296875,1.59375 -1.015625,5.5 -1.40625,7.328125 -0.296875,1.5 -0.546875,2.765625 -1.40625,2.765625 -0.0625,0 -0.5625,0 -0.859375,-0.328125 0.875,-0.078125 0.875,-0.828125 0.875,-0.84375 0,-0.34375 -0.265625,-0.546875 -0.59375,-0.546875 -0.34375,0 -0.859375,0.28125 -0.859375,0.9375 0,0.75 0.765625,1.125 1.4375,1.125 1.75,0 2.46875,-3.15625 2.65625,-4.015625 0.3125,-1.328125 1.15625,-5.90625 1.25,-6.421875 z m 0,0"
               id="path161" />
          </g>
        </g>
        <g
           style="fill:#000000;fill-opacity:1"
           id="g74">
          <g
             id="use72"
             transform="translate(25.070999,15.479)">
            <path
               style="stroke:none"
               d="m 3.4375,-7.65625 c 0,-0.28125 0,-0.296875 -0.234375,-0.296875 C 2.921875,-7.625 2.3125,-7.1875 1.09375,-7.1875 v 0.34375 c 0.265625,0 0.859375,0 1.53125,-0.296875 v 6.21875 c 0,0.4375 -0.046875,0.578125 -1.09375,0.578125 h -0.375 V 0 c 0.328125,-0.03125 1.484375,-0.03125 1.875,-0.03125 0.40625,0 1.546875,0 1.875,0.03125 v -0.34375 h -0.375 c -1.046875,0 -1.09375,-0.140625 -1.09375,-0.578125 z m 0,0"
               id="path165" />
          </g>
        </g>
        <g
           style="fill:#000000;fill-opacity:1"
           id="g78">
          <g
             id="use76"
             transform="translate(31.422001,12.897)">
            <path
               style="stroke:none"
               d="m 3.359375,0.0625 c 0,-1 -0.328125,-1.734375 -1.03125,-1.734375 C 1.78125,-1.671875 1.5,-1.21875 1.5,-0.84375 1.5,-0.46875 1.75,0 2.34375,0 2.5625,0 2.75,-0.0625 2.90625,-0.21875 c 0.03125,-0.046875 0.0625,-0.046875 0.078125,-0.046875 0.03125,0 0.03125,0.25 0.03125,0.328125 0,0.578125 -0.109375,1.6875 -1.109375,2.8125 -0.1875,0.203125 -0.1875,0.234375 -0.1875,0.28125 0,0.078125 0.09375,0.171875 0.171875,0.171875 0.140625,0 1.46875,-1.28125 1.46875,-3.265625 z m 0,0"
               id="path169" />
          </g>
        </g>
        <g
           style="fill:#000000;fill-opacity:1"
           id="g88">
          <g
             id="use80"
             transform="translate(38.979561,12.897)">
            <path
               style="stroke:none"
               d="m 3.171875,-0.828125 c 0,-0.5 -0.421875,-0.84375 -0.828125,-0.84375 C 1.84375,-1.671875 1.5,-1.25 1.5,-0.84375 1.5,-0.34375 1.90625,0 2.328125,0 c 0.5,0 0.84375,-0.40625 0.84375,-0.828125 z m 0,0"
               id="path173" />
          </g>
          <g
             id="use82"
             transform="translate(43.662148,12.897)">
            <path
               style="stroke:none"
               d="m 3.171875,-0.828125 c 0,-0.5 -0.421875,-0.84375 -0.828125,-0.84375 C 1.84375,-1.671875 1.5,-1.25 1.5,-0.84375 1.5,-0.34375 1.90625,0 2.328125,0 c 0.5,0 0.84375,-0.40625 0.84375,-0.828125 z m 0,0"
               id="path177" />
          </g>
          <g
             id="use84"
             transform="translate(48.344738,12.897)">
            <path
               style="stroke:none"
               d="m 3.171875,-0.828125 c 0,-0.5 -0.421875,-0.84375 -0.828125,-0.84375 C 1.84375,-1.671875 1.5,-1.25 1.5,-0.84375 1.5,-0.34375 1.90625,0 2.328125,0 c 0.5,0 0.84375,-0.40625 0.84375,-0.828125 z m 0,0"
               id="path181" />
          </g>
          <g
             id="use86"
             transform="translate(53.027328,12.897)">
            <path
               style="stroke:none"
               d="m 3.359375,0.0625 c 0,-1 -0.328125,-1.734375 -1.03125,-1.734375 C 1.78125,-1.671875 1.5,-1.21875 1.5,-0.84375 1.5,-0.46875 1.75,0 2.34375,0 2.5625,0 2.75,-0.0625 2.90625,-0.21875 c 0.03125,-0.046875 0.0625,-0.046875 0.078125,-0.046875 0.03125,0 0.03125,0.25 0.03125,0.328125 0,0.578125 -0.109375,1.6875 -1.109375,2.8125 -0.1875,0.203125 -0.1875,0.234375 -0.1875,0.28125 0,0.078125 0.09375,0.171875 0.171875,0.171875 0.140625,0 1.46875,-1.28125 1.46875,-3.265625 z m 0,0"
               id="path185" />
          </g>
        </g>
        <g
           style="fill:#000000;fill-opacity:1"
           id="g92">
          <g
             id="use90"
             transform="translate(60.567673,12.897)">
            <path
               style="stroke:none"
               d="m 7.671875,-6.921875 c 0.359375,0 0.484375,0 0.484375,-0.328125 0,-0.171875 -0.125,-0.171875 -0.4375,-0.171875 H 6.3125 c 0.328125,-1.765625 0.578125,-3 0.71875,-3.546875 0.09375,-0.40625 0.453125,-0.8125 0.90625,-0.8125 0.359375,0 0.71875,0.15625 0.890625,0.3125 -0.671875,0.0625 -0.875,0.5625 -0.875,0.859375 0,0.34375 0.265625,0.546875 0.59375,0.546875 0.34375,0 0.859375,-0.28125 0.859375,-0.9375 0,-0.71875 -0.734375,-1.125 -1.484375,-1.125 -0.734375,0 -1.46875,0.546875 -1.8125,1.21875 -0.3125,0.609375 -0.484375,1.234375 -0.875,3.484375 h -1.15625 c -0.328125,0 -0.5,0 -0.5,0.3125 0,0.1875 0.109375,0.1875 0.453125,0.1875 H 5.125 c -0.296875,1.59375 -1.015625,5.5 -1.40625,7.328125 -0.296875,1.5 -0.546875,2.765625 -1.40625,2.765625 -0.0625,0 -0.5625,0 -0.859375,-0.328125 0.875,-0.078125 0.875,-0.828125 0.875,-0.84375 0,-0.34375 -0.265625,-0.546875 -0.59375,-0.546875 -0.34375,0 -0.859375,0.28125 -0.859375,0.9375 0,0.75 0.765625,1.125 1.4375,1.125 1.75,0 2.46875,-3.15625 2.65625,-4.015625 0.3125,-1.328125 1.15625,-5.90625 1.25,-6.421875 z m 0,0"
               id="path189" />
          </g>
        </g>
        <g
           style="fill:#000000;fill-opacity:1"
           id="g96">
          <g
             id="use94"
             transform="translate(68.880997,15.479)">
            <path
               style="stroke:none"
               d="m 3.359375,-8 c 0.015625,-0.046875 0.03125,-0.109375 0.03125,-0.171875 0,-0.125 -0.109375,-0.125 -0.140625,-0.125 -0.015625,0 -0.4375,0.03125 -0.65625,0.0625 C 2.390625,-8.21875 2.21875,-8.203125 2,-8.1875 c -0.296875,0.03125 -0.375,0.03125 -0.375,0.25 0,0.125 0.125,0.125 0.234375,0.125 0.609375,0 0.609375,0.109375 0.609375,0.21875 0,0.046875 0,0.078125 -0.046875,0.296875 L 0.703125,-0.46875 C 0.65625,-0.28125 0.65625,-0.265625 0.65625,-0.1875 c 0,0.265625 0.203125,0.3125 0.328125,0.3125 0.328125,0 0.40625,-0.265625 0.5,-0.640625 L 2.046875,-2.75 c 0.859375,0.09375 1.375,0.453125 1.375,1.03125 0,0.0625 0,0.109375 -0.046875,0.296875 -0.046875,0.171875 -0.046875,0.328125 -0.046875,0.375 0,0.703125 0.46875,1.171875 1.078125,1.171875 0.546875,0 0.828125,-0.5 0.921875,-0.671875 0.25,-0.4375 0.40625,-1.109375 0.40625,-1.15625 0,-0.0625 -0.046875,-0.109375 -0.109375,-0.109375 -0.109375,0 -0.125,0.046875 -0.171875,0.234375 C 5.28125,-0.953125 5.03125,-0.125 4.421875,-0.125 4.1875,-0.125 4.03125,-0.234375 4.03125,-0.6875 c 0,-0.234375 0.046875,-0.5 0.09375,-0.671875 0.046875,-0.21875 0.046875,-0.234375 0.046875,-0.375 0,-0.703125 -0.640625,-1.09375 -1.734375,-1.234375 0.4375,-0.265625 0.859375,-0.734375 1.03125,-0.921875 0.671875,-0.765625 1.140625,-1.140625 1.6875,-1.140625 0.28125,0 0.359375,0.078125 0.4375,0.140625 -0.4375,0.046875 -0.609375,0.359375 -0.609375,0.59375 0,0.296875 0.234375,0.390625 0.390625,0.390625 0.328125,0 0.609375,-0.28125 0.609375,-0.65625 0,-0.34375 -0.265625,-0.703125 -0.8125,-0.703125 -0.65625,0 -1.1875,0.453125 -2.046875,1.421875 -0.109375,0.140625 -0.5625,0.59375 -1,0.765625 z m 0,0"
               id="path193" />
          </g>
        </g>
        <g
           style="fill:#000000;fill-opacity:1"
           id="g100">
          <g
             id="use98"
             transform="translate(80.651001,12.897)">
            <path
               style="stroke:none"
               d="m 9.4375,-3.953125 c 0.296875,0 0.59375,0 0.59375,-0.359375 0,-0.34375 -0.296875,-0.34375 -0.59375,-0.34375 H 2.140625 C 2.34375,-6.953125 4.328125,-8.609375 6.75,-8.609375 h 2.6875 c 0.296875,0 0.59375,0 0.59375,-0.34375 0,-0.34375 -0.296875,-0.34375 -0.59375,-0.34375 H 6.71875 c -2.953125,0 -5.296875,2.234375 -5.296875,4.984375 0,2.765625 2.34375,5 5.296875,5 H 9.4375 c 0.296875,0 0.59375,0 0.59375,-0.34375 C 10.03125,0 9.734375,0 9.4375,0 H 6.75 C 4.328125,0 2.34375,-1.65625 2.140625,-3.953125 Z m 0,0"
               id="path197" />
          </g>
        </g>
        <g
           style="fill:#000000;fill-opacity:1"
           id="g104">
          <g
             id="use102"
             transform="translate(96.910004,12.897)">
            <path
               style="stroke:none"
               d="m 8.609375,-6.953125 c -0.015625,-0.0625 -0.09375,-0.1875 -0.09375,-0.25 0,-0.015625 0.03125,-0.03125 0.3125,-0.25 L 10.5,-8.765625 c 2.3125,-1.796875 3.0625,-2.390625 4.25,-2.5 0.125,-0.01563 0.296875,-0.01563 0.296875,-0.3125 0,-0.09375 -0.04687,-0.1875 -0.1875,-0.1875 -0.1875,0 -0.390625,0.04687 -0.578125,0.04687 H 13.625 c -0.53125,0 -1.109375,-0.04687 -1.625,-0.04687 -0.125,0 -0.328125,0 -0.328125,0.3125 0,0.171875 0.125,0.1875 0.21875,0.1875 0.203125,0.01563 0.421875,0.09375 0.421875,0.328125 0,0.34375 -0.515625,0.765625 -0.65625,0.859375 l -6.75,5.25 L 6.34375,-10.5 c 0.140625,-0.59375 0.1875,-0.765625 1.40625,-0.765625 0.328125,0 0.484375,0 0.484375,-0.328125 0,-0.171875 -0.171875,-0.171875 -0.265625,-0.171875 -0.3125,0 -0.671875,0.04687 -1,0.04687 H 4.9375 c -0.3125,0 -0.6875,-0.04687 -1,-0.04687 -0.125,0 -0.328125,0 -0.328125,0.328125 0,0.171875 0.15625,0.171875 0.421875,0.171875 1.046875,0 1.046875,0.140625 1.046875,0.328125 0,0.03125 0,0.140625 -0.0625,0.40625 l -2.328125,9.25 C 2.53125,-0.671875 2.5,-0.5 1.296875,-0.5 c -0.328125,0 -0.5,0 -0.5,0.3125 0,0.1875 0.15625,0.1875 0.25,0.1875 0.328125,0 0.671875,-0.03125 1,-0.03125 H 4.0625 C 4.390625,-0.03125 4.75,0 5.078125,0 5.21875,0 5.40625,0 5.40625,-0.328125 5.40625,-0.5 5.25,-0.5 5,-0.5 c -1.0625,0 -1.0625,-0.140625 -1.0625,-0.3125 0,-0.125 0.109375,-0.546875 0.171875,-0.828125 L 4.78125,-4.3125 l 2.625,-2.046875 c 0.5,1.109375 1.40625,3.3125 2.109375,5 0.0625,0.109375 0.09375,0.203125 0.09375,0.328125 0,0.515625 -0.6875,0.53125 -0.84375,0.53125 -0.15625,0 -0.328125,0 -0.328125,0.328125 C 8.4375,0 8.625,0 8.671875,0 c 0.609375,0 1.25,-0.03125 1.84375,-0.03125 H 11.34375 C 11.609375,-0.03125 11.890625,0 12.15625,0 12.265625,0 12.453125,0 12.453125,-0.328125 12.453125,-0.5 12.296875,-0.5 12.125,-0.5 11.484375,-0.515625 11.265625,-0.65625 11,-1.28125 Z m 0,0"
               id="path201" />
          </g>
        </g>
        <g
           clip-path="url(#clipPath3044)"
           clip-rule="nonzero"
           id="g110">
          <g
             style="fill:#000000;fill-opacity:1"
             id="g108">
            <g
               id="use106"
               transform="translate(112.487,12.897)">
              <path
                 style="stroke:none"
                 d="M 4.046875,4.28125 V 3.6875 h -1.625 v -15.984375 h 1.625 v -0.59375 H 1.828125 V 4.28125 Z m 0,0"
                 id="path205" />
            </g>
          </g>
        </g>
        <g
           style="fill:#000000;fill-opacity:1"
           id="g114">
          <g
             id="use112"
             transform="translate(116.785,12.897)">
            <path
               style="stroke:none"
               d="M 8.171875,-6.984375 6.5625,-10.765625 c 0.21875,-0.40625 0.734375,-0.484375 0.9375,-0.5 0.109375,0 0.296875,-0.01563 0.296875,-0.3125 0,-0.1875 -0.15625,-0.1875 -0.25,-0.1875 -0.296875,0 -0.640625,0.04687 -0.9375,0.04687 h -1 c -1.046875,0 -1.796875,-0.04687 -1.828125,-0.04687 -0.125,0 -0.296875,0 -0.296875,0.328125 0,0.171875 0.15625,0.171875 0.375,0.171875 1,0 1.0625,0.171875 1.234375,0.59375 l 2.046875,4.78125 -3.734375,4 C 2.796875,-1.21875 2.046875,-0.5625 0.78125,-0.5 0.5625,-0.484375 0.4375,-0.484375 0.4375,-0.171875 0.4375,-0.125 0.453125,0 0.640625,0 0.875,0 1.140625,-0.03125 1.375,-0.03125 H 2.1875 C 2.734375,-0.03125 3.34375,0 3.875,0 4,0 4.203125,0 4.203125,-0.3125 4.203125,-0.484375 4.078125,-0.5 3.984375,-0.5 3.640625,-0.53125 3.40625,-0.71875 3.40625,-1 c 0,-0.296875 0.203125,-0.5 0.703125,-1.015625 L 5.640625,-3.6875 C 6.03125,-4.078125 6.9375,-5.078125 7.3125,-5.453125 L 9.125,-1.21875 C 9.140625,-1.1875 9.21875,-1.015625 9.21875,-1 c 0,0.15625 -0.390625,0.46875 -0.9375,0.5 -0.109375,0 -0.296875,0.015625 -0.296875,0.328125 C 7.984375,0 8.15625,0 8.25,0 8.546875,0 8.890625,-0.03125 9.171875,-0.03125 h 1.90625 C 11.375,-0.03125 11.703125,0 12,0 12.125,0 12.3125,0 12.3125,-0.328125 12.3125,-0.5 12.140625,-0.5 11.984375,-0.5 10.953125,-0.515625 10.921875,-0.609375 10.625,-1.234375 l -2.28125,-5.34375 2.1875,-2.34375 c 0.171875,-0.171875 0.578125,-0.59375 0.734375,-0.765625 0.734375,-0.78125 1.421875,-1.484375 2.8125,-1.578125 0.171875,-0.01563 0.34375,-0.01563 0.34375,-0.3125 0,-0.1875 -0.140625,-0.1875 -0.21875,-0.1875 -0.234375,0 -0.5,0.04687 -0.734375,0.04687 h -0.796875 c -0.546875,0 -1.15625,-0.04687 -1.6875,-0.04687 -0.125,0 -0.328125,0 -0.328125,0.3125 0,0.171875 0.125,0.1875 0.21875,0.1875 0.28125,0.03125 0.578125,0.171875 0.578125,0.5 l -0.01563,0.03125 c -0.01563,0.125 -0.0625,0.296875 -0.25,0.5 z m 0,0"
               id="path209" />
          </g>
        </g>
        <g
           style="fill:#000000;fill-opacity:1"
           id="g118">
          <g
             id="use116"
             transform="translate(130.77499,15.479)">
            <path
               style="stroke:none"
               d="m 3.4375,-7.65625 c 0,-0.28125 0,-0.296875 -0.234375,-0.296875 C 2.921875,-7.625 2.3125,-7.1875 1.09375,-7.1875 v 0.34375 c 0.265625,0 0.859375,0 1.53125,-0.296875 v 6.21875 c 0,0.4375 -0.046875,0.578125 -1.09375,0.578125 h -0.375 V 0 c 0.328125,-0.03125 1.484375,-0.03125 1.875,-0.03125 0.40625,0 1.546875,0 1.875,0.03125 v -0.34375 h -0.375 c -1.046875,0 -1.09375,-0.140625 -1.09375,-0.578125 z m 0,0"
               id="path213" />
          </g>
        </g>
        <g
           style="fill:#000000;fill-opacity:1"
           id="g122">
          <g
             id="use120"
             transform="translate(137.12601,12.897)">
            <path
               style="stroke:none"
               d="m 3.359375,0.0625 c 0,-1 -0.328125,-1.734375 -1.03125,-1.734375 C 1.78125,-1.671875 1.5,-1.21875 1.5,-0.84375 1.5,-0.46875 1.75,0 2.34375,0 2.5625,0 2.75,-0.0625 2.90625,-0.21875 c 0.03125,-0.046875 0.0625,-0.046875 0.078125,-0.046875 0.03125,0 0.03125,0.25 0.03125,0.328125 0,0.578125 -0.109375,1.6875 -1.109375,2.8125 -0.1875,0.203125 -0.1875,0.234375 -0.1875,0.28125 0,0.078125 0.09375,0.171875 0.171875,0.171875 0.140625,0 1.46875,-1.28125 1.46875,-3.265625 z m 0,0"
               id="path217" />
          </g>
        </g>
        <g
           style="fill:#000000;fill-opacity:1"
           id="g132">
          <g
             id="use124"
             transform="translate(144.68356,12.897)">
            <path
               style="stroke:none"
               d="m 3.171875,-0.828125 c 0,-0.5 -0.421875,-0.84375 -0.828125,-0.84375 C 1.84375,-1.671875 1.5,-1.25 1.5,-0.84375 1.5,-0.34375 1.90625,0 2.328125,0 c 0.5,0 0.84375,-0.40625 0.84375,-0.828125 z m 0,0"
               id="path221" />
          </g>
          <g
             id="use126"
             transform="translate(149.36615,12.897)">
            <path
               style="stroke:none"
               d="m 3.171875,-0.828125 c 0,-0.5 -0.421875,-0.84375 -0.828125,-0.84375 C 1.84375,-1.671875 1.5,-1.25 1.5,-0.84375 1.5,-0.34375 1.90625,0 2.328125,0 c 0.5,0 0.84375,-0.40625 0.84375,-0.828125 z m 0,0"
               id="path225" />
          </g>
          <g
             id="use128"
             transform="translate(154.04874,12.897)">
            <path
               style="stroke:none"
               d="m 3.171875,-0.828125 c 0,-0.5 -0.421875,-0.84375 -0.828125,-0.84375 C 1.84375,-1.671875 1.5,-1.25 1.5,-0.84375 1.5,-0.34375 1.90625,0 2.328125,0 c 0.5,0 0.84375,-0.40625 0.84375,-0.828125 z m 0,0"
               id="path229" />
          </g>
          <g
             id="use130"
             transform="translate(158.73132,12.897)">
            <path
               style="stroke:none"
               d="m 3.359375,0.0625 c 0,-1 -0.328125,-1.734375 -1.03125,-1.734375 C 1.78125,-1.671875 1.5,-1.21875 1.5,-0.84375 1.5,-0.46875 1.75,0 2.34375,0 2.5625,0 2.75,-0.0625 2.90625,-0.21875 c 0.03125,-0.046875 0.0625,-0.046875 0.078125,-0.046875 0.03125,0 0.03125,0.25 0.03125,0.328125 0,0.578125 -0.109375,1.6875 -1.109375,2.8125 -0.1875,0.203125 -0.1875,0.234375 -0.1875,0.28125 0,0.078125 0.09375,0.171875 0.171875,0.171875 0.140625,0 1.46875,-1.28125 1.46875,-3.265625 z m 0,0"
               id="path233" />
          </g>
        </g>
        <g
           style="fill:#000000;fill-opacity:1"
           id="g136">
          <g
             id="use134"
             transform="translate(166.27167,12.897)">
            <path
               style="stroke:none"
               d="M 8.171875,-6.984375 6.5625,-10.765625 c 0.21875,-0.40625 0.734375,-0.484375 0.9375,-0.5 0.109375,0 0.296875,-0.01563 0.296875,-0.3125 0,-0.1875 -0.15625,-0.1875 -0.25,-0.1875 -0.296875,0 -0.640625,0.04687 -0.9375,0.04687 h -1 c -1.046875,0 -1.796875,-0.04687 -1.828125,-0.04687 -0.125,0 -0.296875,0 -0.296875,0.328125 0,0.171875 0.15625,0.171875 0.375,0.171875 1,0 1.0625,0.171875 1.234375,0.59375 l 2.046875,4.78125 -3.734375,4 C 2.796875,-1.21875 2.046875,-0.5625 0.78125,-0.5 0.5625,-0.484375 0.4375,-0.484375 0.4375,-0.171875 0.4375,-0.125 0.453125,0 0.640625,0 0.875,0 1.140625,-0.03125 1.375,-0.03125 H 2.1875 C 2.734375,-0.03125 3.34375,0 3.875,0 4,0 4.203125,0 4.203125,-0.3125 4.203125,-0.484375 4.078125,-0.5 3.984375,-0.5 3.640625,-0.53125 3.40625,-0.71875 3.40625,-1 c 0,-0.296875 0.203125,-0.5 0.703125,-1.015625 L 5.640625,-3.6875 C 6.03125,-4.078125 6.9375,-5.078125 7.3125,-5.453125 L 9.125,-1.21875 C 9.140625,-1.1875 9.21875,-1.015625 9.21875,-1 c 0,0.15625 -0.390625,0.46875 -0.9375,0.5 -0.109375,0 -0.296875,0.015625 -0.296875,0.328125 C 7.984375,0 8.15625,0 8.25,0 8.546875,0 8.890625,-0.03125 9.171875,-0.03125 h 1.90625 C 11.375,-0.03125 11.703125,0 12,0 12.125,0 12.3125,0 12.3125,-0.328125 12.3125,-0.5 12.140625,-0.5 11.984375,-0.5 10.953125,-0.515625 10.921875,-0.609375 10.625,-1.234375 l -2.28125,-5.34375 2.1875,-2.34375 c 0.171875,-0.171875 0.578125,-0.59375 0.734375,-0.765625 0.734375,-0.78125 1.421875,-1.484375 2.8125,-1.578125 0.171875,-0.01563 0.34375,-0.01563 0.34375,-0.3125 0,-0.1875 -0.140625,-0.1875 -0.21875,-0.1875 -0.234375,0 -0.5,0.04687 -0.734375,0.04687 h -0.796875 c -0.546875,0 -1.15625,-0.04687 -1.6875,-0.04687 -0.125,0 -0.328125,0 -0.328125,0.3125 0,0.171875 0.125,0.1875 0.21875,0.1875 0.28125,0.03125 0.578125,0.171875 0.578125,0.5 l -0.01563,0.03125 c -0.01563,0.125 -0.0625,0.296875 -0.25,0.5 z m 0,0"
               id="path237" />
          </g>
        </g>
        <g
           style="fill:#000000;fill-opacity:1"
           id="g140">
          <g
             id="use138"
             transform="translate(180.26601,15.479)">
            <path
               style="stroke:none"
               d="M 2.46875,-3.5 C 2.484375,-3.578125 2.78125,-4.171875 3.234375,-4.546875 3.53125,-4.84375 3.9375,-5.03125 4.40625,-5.03125 c 0.484375,0 0.65625,0.359375 0.65625,0.828125 0,0.6875 -0.5,2.046875 -0.734375,2.703125 -0.109375,0.28125 -0.171875,0.4375 -0.171875,0.65625 0,0.53125 0.375,0.96875 0.953125,0.96875 1.109375,0 1.53125,-1.765625 1.53125,-1.828125 0,-0.0625 -0.046875,-0.109375 -0.125,-0.109375 -0.109375,0 -0.125,0.03125 -0.1875,0.234375 C 6.0625,-0.59375 5.609375,-0.125 5.140625,-0.125 c -0.125,0 -0.3125,0 -0.3125,-0.390625 0,-0.296875 0.125,-0.65625 0.203125,-0.828125 C 5.265625,-2 5.765625,-3.328125 5.765625,-4.015625 c 0,-0.71875 -0.40625,-1.25 -1.3125,-1.25 -1.078125,0 -1.625,0.75 -1.84375,1.046875 -0.046875,-0.6875 -0.53125,-1.046875 -1.0625,-1.046875 -0.375,0 -0.640625,0.21875 -0.84375,0.625 -0.21875,0.4375 -0.375,1.15625 -0.375,1.203125 0,0.046875 0.046875,0.109375 0.125,0.109375 0.09375,0 0.109375,-0.015625 0.1875,-0.296875 0.1875,-0.71875 0.40625,-1.40625 0.875,-1.40625 0.28125,0 0.375,0.1875 0.375,0.546875 0,0.265625 -0.125,0.734375 -0.203125,1.109375 l -0.34375,1.28125 c -0.046875,0.234375 -0.171875,0.765625 -0.234375,0.984375 -0.078125,0.3125 -0.21875,0.875 -0.21875,0.9375 0,0.15625 0.140625,0.296875 0.3125,0.296875 0.140625,0 0.3125,-0.078125 0.40625,-0.25 C 1.640625,-0.1875 1.75,-0.609375 1.8125,-0.84375 l 0.25,-1.078125 z m 0,0"
               id="path241" />
          </g>
        </g>
        <g
           clip-path="url(#clipPath5101)"
           clip-rule="nonzero"
           id="g146">
          <g
             style="fill:#000000;fill-opacity:1"
             id="g144">
            <g
               id="use142"
               transform="translate(187.752,12.897)">
              <path
                 style="stroke:none"
                 d="M 2.46875,-12.890625 H 0.234375 v 0.59375 h 1.625 V 3.6875 h -1.625 V 4.28125 H 2.46875 Z m 0,0"
                 id="path245" />
            </g>
          </g>
        </g>
      </g>
    </g>
    <g
       inkscape:label=""
       transform="translate(54.518279,126.29492)"
       id="g2129">
      <g
         id="g2127"
         transform="matrix(0.352778,0,0,0.352778,-0.308681,0.00383637)">
        <g
           style="fill:#000000;fill-opacity:1"
           id="g59">
          <g
             id="use57"
             transform="translate(0,12.911)">
            <path
               style="stroke:none"
               d="m 7.671875,-6.921875 c 0.359375,0 0.484375,0 0.484375,-0.328125 0,-0.171875 -0.125,-0.171875 -0.4375,-0.171875 H 6.3125 c 0.328125,-1.765625 0.578125,-3 0.71875,-3.546875 0.09375,-0.40625 0.453125,-0.8125 0.90625,-0.8125 0.359375,0 0.71875,0.15625 0.890625,0.3125 -0.671875,0.0625 -0.875,0.5625 -0.875,0.859375 0,0.34375 0.265625,0.546875 0.59375,0.546875 0.34375,0 0.859375,-0.28125 0.859375,-0.9375 0,-0.71875 -0.734375,-1.125 -1.484375,-1.125 -0.734375,0 -1.46875,0.546875 -1.8125,1.21875 -0.3125,0.609375 -0.484375,1.234375 -0.875,3.484375 h -1.15625 c -0.328125,0 -0.5,0 -0.5,0.3125 0,0.1875 0.109375,0.1875 0.453125,0.1875 H 5.125 c -0.296875,1.59375 -1.015625,5.5 -1.40625,7.328125 -0.296875,1.5 -0.546875,2.765625 -1.40625,2.765625 -0.0625,0 -0.5625,0 -0.859375,-0.328125 0.875,-0.078125 0.875,-0.828125 0.875,-0.84375 0,-0.34375 -0.265625,-0.546875 -0.59375,-0.546875 -0.34375,0 -0.859375,0.28125 -0.859375,0.9375 0,0.75 0.765625,1.125 1.4375,1.125 1.75,0 2.46875,-3.15625 2.65625,-4.015625 0.3125,-1.328125 1.15625,-5.90625 1.25,-6.421875 z m 0,0"
               id="path118" />
          </g>
        </g>
        <g
           style="fill:#000000;fill-opacity:1"
           id="g63">
          <g
             id="use61"
             transform="translate(14.929,12.911)">
            <path
               style="stroke:none"
               d="m 9.4375,-3.953125 c 0.296875,0 0.59375,0 0.59375,-0.359375 0,-0.34375 -0.296875,-0.34375 -0.59375,-0.34375 H 2.140625 C 2.34375,-6.953125 4.328125,-8.609375 6.75,-8.609375 h 2.6875 c 0.296875,0 0.59375,0 0.59375,-0.34375 0,-0.34375 -0.296875,-0.34375 -0.59375,-0.34375 H 6.71875 c -2.953125,0 -5.296875,2.234375 -5.296875,4.984375 0,2.765625 2.34375,5 5.296875,5 H 9.4375 c 0.296875,0 0.59375,0 0.59375,-0.34375 C 10.03125,0 9.734375,0 9.4375,0 H 6.75 C 4.328125,0 2.34375,-1.65625 2.140625,-3.953125 Z m 0,0"
               id="path122" />
          </g>
        </g>
        <g
           clip-path="url(#clipPath8851)"
           clip-rule="nonzero"
           id="g69">
          <g
             style="fill:#000000;fill-opacity:1"
             id="g67">
            <g
               id="use65"
               transform="translate(31.192389,12.911)">
              <path
                 style="stroke:none"
                 d="m 5.640625,-12.265625 c 0.09375,-0.1875 0.09375,-0.21875 0.09375,-0.296875 0,-0.203125 -0.15625,-0.359375 -0.34375,-0.359375 -0.15625,0 -0.28125,0.09375 -0.390625,0.40625 l -3.015625,7.90625 c -0.03125,0.09375 -0.09375,0.203125 -0.09375,0.296875 0,0.0625 0,0.09375 0.09375,0.296875 L 5,3.890625 c 0.0625,0.1875 0.140625,0.421875 0.390625,0.421875 0.1875,0 0.34375,-0.15625 0.34375,-0.359375 0,-0.046875 0,-0.078125 -0.09375,-0.265625 l -3.046875,-8 z m 0,0"
                 id="path126" />
            </g>
          </g>
        </g>
        <g
           style="fill:#000000;fill-opacity:1"
           id="g73">
          <g
             id="use71"
             transform="translate(37.882999,12.911)">
            <path
               style="stroke:none"
               d="m 7.671875,-6.921875 c 0.359375,0 0.484375,0 0.484375,-0.328125 0,-0.171875 -0.125,-0.171875 -0.4375,-0.171875 H 6.3125 c 0.328125,-1.765625 0.578125,-3 0.71875,-3.546875 0.09375,-0.40625 0.453125,-0.8125 0.90625,-0.8125 0.359375,0 0.71875,0.15625 0.890625,0.3125 -0.671875,0.0625 -0.875,0.5625 -0.875,0.859375 0,0.34375 0.265625,0.546875 0.59375,0.546875 0.34375,0 0.859375,-0.28125 0.859375,-0.9375 0,-0.71875 -0.734375,-1.125 -1.484375,-1.125 -0.734375,0 -1.46875,0.546875 -1.8125,1.21875 -0.3125,0.609375 -0.484375,1.234375 -0.875,3.484375 h -1.15625 c -0.328125,0 -0.5,0 -0.5,0.3125 0,0.1875 0.109375,0.1875 0.453125,0.1875 H 5.125 c -0.296875,1.59375 -1.015625,5.5 -1.40625,7.328125 -0.296875,1.5 -0.546875,2.765625 -1.40625,2.765625 -0.0625,0 -0.5625,0 -0.859375,-0.328125 0.875,-0.078125 0.875,-0.828125 0.875,-0.84375 0,-0.34375 -0.265625,-0.546875 -0.59375,-0.546875 -0.34375,0 -0.859375,0.28125 -0.859375,0.9375 0,0.75 0.765625,1.125 1.4375,1.125 1.75,0 2.46875,-3.15625 2.65625,-4.015625 0.3125,-1.328125 1.15625,-5.90625 1.25,-6.421875 z m 0,0"
               id="path130" />
          </g>
        </g>
        <g
           style="fill:#000000;fill-opacity:1"
           id="g77">
          <g
             id="use75"
             transform="translate(46.192001,15.493)">
            <path
               style="stroke:none"
               d="m 3.4375,-7.65625 c 0,-0.28125 0,-0.296875 -0.234375,-0.296875 C 2.921875,-7.625 2.3125,-7.1875 1.09375,-7.1875 v 0.34375 c 0.265625,0 0.859375,0 1.53125,-0.296875 v 6.21875 c 0,0.4375 -0.046875,0.578125 -1.09375,0.578125 h -0.375 V 0 c 0.328125,-0.03125 1.484375,-0.03125 1.875,-0.03125 0.40625,0 1.546875,0 1.875,0.03125 v -0.34375 h -0.375 c -1.046875,0 -1.09375,-0.140625 -1.09375,-0.578125 z m 0,0"
               id="path134" />
          </g>
        </g>
        <g
           style="fill:#000000;fill-opacity:1"
           id="g81">
          <g
             id="use79"
             transform="translate(52.542999,12.911)">
            <path
               style="stroke:none"
               d="m 3.359375,0.0625 c 0,-1 -0.328125,-1.734375 -1.03125,-1.734375 C 1.78125,-1.671875 1.5,-1.21875 1.5,-0.84375 1.5,-0.46875 1.75,0 2.34375,0 2.5625,0 2.75,-0.0625 2.90625,-0.21875 c 0.03125,-0.046875 0.0625,-0.046875 0.078125,-0.046875 0.03125,0 0.03125,0.25 0.03125,0.328125 0,0.578125 -0.109375,1.6875 -1.109375,2.8125 -0.1875,0.203125 -0.1875,0.234375 -0.1875,0.28125 0,0.078125 0.09375,0.171875 0.171875,0.171875 0.140625,0 1.46875,-1.28125 1.46875,-3.265625 z m 0,0"
               id="path138" />
          </g>
        </g>
        <g
           style="fill:#000000;fill-opacity:1"
           id="g91">
          <g
             id="use83"
             transform="translate(60.100559,12.911)">
            <path
               style="stroke:none"
               d="m 3.171875,-0.828125 c 0,-0.5 -0.421875,-0.84375 -0.828125,-0.84375 C 1.84375,-1.671875 1.5,-1.25 1.5,-0.84375 1.5,-0.34375 1.90625,0 2.328125,0 c 0.5,0 0.84375,-0.40625 0.84375,-0.828125 z m 0,0"
               id="path142" />
          </g>
          <g
             id="use85"
             transform="translate(64.78315,12.911)">
            <path
               style="stroke:none"
               d="m 3.171875,-0.828125 c 0,-0.5 -0.421875,-0.84375 -0.828125,-0.84375 C 1.84375,-1.671875 1.5,-1.25 1.5,-0.84375 1.5,-0.34375 1.90625,0 2.328125,0 c 0.5,0 0.84375,-0.40625 0.84375,-0.828125 z m 0,0"
               id="path146" />
          </g>
          <g
             id="use87"
             transform="translate(69.465736,12.911)">
            <path
               style="stroke:none"
               d="m 3.171875,-0.828125 c 0,-0.5 -0.421875,-0.84375 -0.828125,-0.84375 C 1.84375,-1.671875 1.5,-1.25 1.5,-0.84375 1.5,-0.34375 1.90625,0 2.328125,0 c 0.5,0 0.84375,-0.40625 0.84375,-0.828125 z m 0,0"
               id="path150" />
          </g>
          <g
             id="use89"
             transform="translate(74.148331,12.911)">
            <path
               style="stroke:none"
               d="m 3.359375,0.0625 c 0,-1 -0.328125,-1.734375 -1.03125,-1.734375 C 1.78125,-1.671875 1.5,-1.21875 1.5,-0.84375 1.5,-0.46875 1.75,0 2.34375,0 2.5625,0 2.75,-0.0625 2.90625,-0.21875 c 0.03125,-0.046875 0.0625,-0.046875 0.078125,-0.046875 0.03125,0 0.03125,0.25 0.03125,0.328125 0,0.578125 -0.109375,1.6875 -1.109375,2.8125 -0.1875,0.203125 -0.1875,0.234375 -0.1875,0.28125 0,0.078125 0.09375,0.171875 0.171875,0.171875 0.140625,0 1.46875,-1.28125 1.46875,-3.265625 z m 0,0"
               id="path154" />
          </g>
        </g>
        <g
           style="fill:#000000;fill-opacity:1"
           id="g95">
          <g
             id="use93"
             transform="translate(81.688675,12.911)">
            <path
               style="stroke:none"
               d="m 7.671875,-6.921875 c 0.359375,0 0.484375,0 0.484375,-0.328125 0,-0.171875 -0.125,-0.171875 -0.4375,-0.171875 H 6.3125 c 0.328125,-1.765625 0.578125,-3 0.71875,-3.546875 0.09375,-0.40625 0.453125,-0.8125 0.90625,-0.8125 0.359375,0 0.71875,0.15625 0.890625,0.3125 -0.671875,0.0625 -0.875,0.5625 -0.875,0.859375 0,0.34375 0.265625,0.546875 0.59375,0.546875 0.34375,0 0.859375,-0.28125 0.859375,-0.9375 0,-0.71875 -0.734375,-1.125 -1.484375,-1.125 -0.734375,0 -1.46875,0.546875 -1.8125,1.21875 -0.3125,0.609375 -0.484375,1.234375 -0.875,3.484375 h -1.15625 c -0.328125,0 -0.5,0 -0.5,0.3125 0,0.1875 0.109375,0.1875 0.453125,0.1875 H 5.125 c -0.296875,1.59375 -1.015625,5.5 -1.40625,7.328125 -0.296875,1.5 -0.546875,2.765625 -1.40625,2.765625 -0.0625,0 -0.5625,0 -0.859375,-0.328125 0.875,-0.078125 0.875,-0.828125 0.875,-0.84375 0,-0.34375 -0.265625,-0.546875 -0.59375,-0.546875 -0.34375,0 -0.859375,0.28125 -0.859375,0.9375 0,0.75 0.765625,1.125 1.4375,1.125 1.75,0 2.46875,-3.15625 2.65625,-4.015625 0.3125,-1.328125 1.15625,-5.90625 1.25,-6.421875 z m 0,0"
               id="path158" />
          </g>
        </g>
        <g
           style="fill:#000000;fill-opacity:1"
           id="g99">
          <g
             id="use97"
             transform="translate(90.001999,15.493)">
            <path
               style="stroke:none"
               d="m 3.359375,-8 c 0.015625,-0.046875 0.03125,-0.109375 0.03125,-0.171875 0,-0.125 -0.109375,-0.125 -0.140625,-0.125 -0.015625,0 -0.4375,0.03125 -0.65625,0.0625 C 2.390625,-8.21875 2.21875,-8.203125 2,-8.1875 c -0.296875,0.03125 -0.375,0.03125 -0.375,0.25 0,0.125 0.125,0.125 0.234375,0.125 0.609375,0 0.609375,0.109375 0.609375,0.21875 0,0.046875 0,0.078125 -0.046875,0.296875 L 0.703125,-0.46875 C 0.65625,-0.28125 0.65625,-0.265625 0.65625,-0.1875 c 0,0.265625 0.203125,0.3125 0.328125,0.3125 0.328125,0 0.40625,-0.265625 0.5,-0.640625 L 2.046875,-2.75 c 0.859375,0.09375 1.375,0.453125 1.375,1.03125 0,0.0625 0,0.109375 -0.046875,0.296875 -0.046875,0.171875 -0.046875,0.328125 -0.046875,0.375 0,0.703125 0.46875,1.171875 1.078125,1.171875 0.546875,0 0.828125,-0.5 0.921875,-0.671875 0.25,-0.4375 0.40625,-1.109375 0.40625,-1.15625 0,-0.0625 -0.046875,-0.109375 -0.109375,-0.109375 -0.109375,0 -0.125,0.046875 -0.171875,0.234375 C 5.28125,-0.953125 5.03125,-0.125 4.421875,-0.125 4.1875,-0.125 4.03125,-0.234375 4.03125,-0.6875 c 0,-0.234375 0.046875,-0.5 0.09375,-0.671875 0.046875,-0.21875 0.046875,-0.234375 0.046875,-0.375 0,-0.703125 -0.640625,-1.09375 -1.734375,-1.234375 0.4375,-0.265625 0.859375,-0.734375 1.03125,-0.921875 0.671875,-0.765625 1.140625,-1.140625 1.6875,-1.140625 0.28125,0 0.359375,0.078125 0.4375,0.140625 -0.4375,0.046875 -0.609375,0.359375 -0.609375,0.59375 0,0.296875 0.234375,0.390625 0.390625,0.390625 0.328125,0 0.609375,-0.28125 0.609375,-0.65625 0,-0.34375 -0.265625,-0.703125 -0.8125,-0.703125 -0.65625,0 -1.1875,0.453125 -2.046875,1.421875 -0.109375,0.140625 -0.5625,0.59375 -1,0.765625 z m 0,0"
               id="path162" />
          </g>
        </g>
        <g
           clip-path="url(#clipPath9550)"
           clip-rule="nonzero"
           id="g105">
          <g
             style="fill:#000000;fill-opacity:1"
             id="g103">
            <g
               id="use101"
               transform="translate(96.988998,12.911)">
              <path
                 style="stroke:none"
                 d="M 4.703125,-4.015625 C 4.78125,-4.21875 4.78125,-4.25 4.78125,-4.3125 c 0,-0.046875 0,-0.078125 -0.078125,-0.28125 L 1.6875,-12.515625 c -0.109375,-0.296875 -0.203125,-0.40625 -0.390625,-0.40625 -0.1875,0 -0.34375,0.15625 -0.34375,0.359375 0,0.04687 0,0.07813 0.078125,0.265625 L 4.078125,-4.3125 1.03125,3.65625 C 0.953125,3.84375 0.953125,3.875 0.953125,3.953125 c 0,0.203125 0.15625,0.359375 0.34375,0.359375 0.21875,0 0.28125,-0.1875 0.359375,-0.359375 z m 0,0"
                 id="path166" />
            </g>
          </g>
        </g>
        <g
           clip-path="url(#clipPath5546)"
           clip-rule="nonzero"
           id="g111">
          <g
             style="fill:#000000;fill-opacity:1"
             id="g109">
            <g
               id="use107"
               transform="translate(108.466,12.911)">
              <path
                 style="stroke:none"
                 d="m 3.640625,-3.875 c 0,-1.625 0.8125,-3.046875 2.0625,-4.03125 C 6.03125,-8.140625 6.625,-8.625 6.625,-9.71875 c 0,-1.390625 -1.046875,-2.375 -3.078125,-2.375 -1.71875,0 -2.75,1.1875 -2.75,2.328125 0,0.671875 0.5625,0.671875 0.609375,0.671875 0.1875,0 0.625,-0.125 0.625,-0.625 0,-0.421875 -0.328125,-0.609375 -0.625,-0.609375 -0.0625,0 -0.15625,0.01563 -0.203125,0.03125 C 1.5625,-11.375 2.59375,-11.8125 3.515625,-11.8125 c 2,0 2.015625,1.375 2.015625,2.015625 0,1.046875 -0.328125,1.40625 -0.65625,1.75 C 3.734375,-6.8125 3.328125,-5.203125 3.328125,-3.9375 v 0.671875 c 0,0.28125 0,0.359375 0.15625,0.359375 0.15625,0 0.15625,-0.078125 0.15625,-0.359375 z M 4.1875,-0.703125 c 0,-0.375 -0.3125,-0.703125 -0.703125,-0.703125 -0.390625,0 -0.71875,0.296875 -0.71875,0.703125 0,0.375 0.3125,0.703125 0.71875,0.703125 0.375,0 0.703125,-0.3125 0.703125,-0.703125 z m 0,0"
                 id="path170" />
            </g>
          </g>
        </g>
      </g>
    </g>
    <path
       style="fill:none;stroke:#000000;stroke-width:0.264583px;stroke-linecap:butt;stroke-linejoin:miter;stroke-opacity:1;marker-end:url(#Arrow2)"
       d="m 39.71768,110.4254 c -5.833402,-0.21051 -6.334037,-4.3084 -6.881056,-7.94147"
       id="path2406"
       sodipodi:nodetypes="cc" />
    <path
       style="fill:none;stroke:#000000;stroke-width:0.264583px;stroke-linecap:butt;stroke-linejoin:miter;stroke-opacity:1;marker-end:url(#Arrow2-3)"
       d="M 59.739444,40.635558 C 47.395607,40.155424 46.836921,47.677596 46.289902,51.310666"
       id="path2406-7"
       sodipodi:nodetypes="cc" />
    <path
       style="fill:none;stroke:#000000;stroke-width:0.264583px;stroke-linecap:butt;stroke-linejoin:miter;stroke-opacity:1;marker-start:url(#Arrow2-3-1);marker-end:url(#Arrow2-3-1)"
       d="m 149.73691,83.158118 c 11.10397,8.36122 20.40702,19.789652 7.26356,48.337792"
       id="path2406-7-7"
       sodipodi:nodetypes="cc" />
    <text
       xml:space="preserve"
       style="font-style:normal;font-variant:normal;font-weight:normal;font-stretch:normal;font-size:5.64444px;line-height:1.25;font-family:sans-serif;-inkscape-font-specification:'sans-serif, Normal';font-variant-ligatures:normal;font-variant-caps:normal;font-variant-numeric:normal;font-feature-settings:normal;text-align:start;letter-spacing:0px;word-spacing:0px;writing-mode:lr-tb;text-anchor:start;fill:#000000;fill-opacity:1;stroke:none;stroke-width:0.264583"
       x="61.165298"
       y="42.66256"
       id="text3720"><tspan
         sodipodi:role="line"
         id="tspan3718"
         style="stroke-width:0.264583"
         x="61.165298"
         y="42.66256">人工智能逻辑（更 general）</tspan></text>
    <text
       xml:space="preserve"
       style="font-style:normal;font-variant:normal;font-weight:normal;font-stretch:normal;font-size:5.64444px;line-height:1.25;font-family:sans-serif;-inkscape-font-specification:'sans-serif, Normal';font-variant-ligatures:normal;font-variant-caps:normal;font-variant-numeric:normal;font-feature-settings:normal;text-align:start;letter-spacing:0px;word-spacing:0px;writing-mode:lr-tb;text-anchor:start;fill:#000000;fill-opacity:1;stroke:none;stroke-width:0.264583"
       x="35.835068"
       y="60.888966"
       id="text3724"><tspan
         sodipodi:role="line"
         id="tspan3722"
         style="stroke-width:0.264583"
         x="35.835068"
         y="60.888966">Equational 逻辑，有等号 “=” predicate</tspan><tspan
         sodipodi:role="line"
         style="stroke-width:0.264583"
         x="35.835068"
         y="68.623169"
         id="tspan3726">                           专门决定 A =? B 问题  <tspan
   style="font-size:4.23333px;fill:#ff0000"
   id="tspan5059">(Ch 4)</tspan></tspan></text>
    <text
       xml:space="preserve"
       style="font-style:normal;font-variant:normal;font-weight:normal;font-stretch:normal;font-size:5.64444px;line-height:1.25;font-family:sans-serif;-inkscape-font-specification:'sans-serif, Normal';font-variant-ligatures:normal;font-variant-caps:normal;font-variant-numeric:normal;font-feature-settings:normal;text-align:start;letter-spacing:0px;word-spacing:0px;writing-mode:lr-tb;text-anchor:start;fill:#000000;fill-opacity:1;stroke:none;stroke-width:0.264583"
       x="84.60273"
       y="77.527565"
       id="text3915"><tspan
         sodipodi:role="line"
         id="tspan3913"
         style="stroke-width:0.264583"
         x="84.60273"
         y="77.527565">这问题又叫 “word problem”</tspan></text>
    <text
       xml:space="preserve"
       style="font-style:normal;font-variant:normal;font-weight:normal;font-stretch:normal;font-size:5.64444px;line-height:1.25;font-family:sans-serif;-inkscape-font-specification:'sans-serif, Normal';font-variant-ligatures:normal;font-variant-caps:normal;font-variant-numeric:normal;font-feature-settings:normal;text-align:start;letter-spacing:0px;word-spacing:0px;writing-mode:lr-tb;text-anchor:start;fill:#000000;fill-opacity:1;stroke:none;stroke-width:0.264583"
       x="32.568687"
       y="142.09816"
       id="text4031"><tspan
         sodipodi:role="line"
         id="tspan4029"
         style="stroke-width:0.264583"
         x="32.568687"
         y="142.09816">ideal congruence 问题 也可以视为 word problem</tspan></text>
    <text
       xml:space="preserve"
       style="font-style:normal;font-variant:normal;font-weight:normal;font-stretch:normal;font-size:7.05556px;line-height:1.25;font-family:sans-serif;-inkscape-font-specification:'sans-serif, Normal';font-variant-ligatures:normal;font-variant-caps:normal;font-variant-numeric:normal;font-feature-settings:normal;text-align:start;letter-spacing:0px;word-spacing:0px;writing-mode:lr-tb;text-anchor:start;fill:#000000;fill-opacity:1;stroke:none;stroke-width:0.264583"
       x="36.638927"
       y="26.674194"
       id="text5057"><tspan
         sodipodi:role="line"
         id="tspan5055"
         style="font-size:7.05556px;fill:#0000ff;stroke-width:0.264583"
         x="36.638927"
         y="26.674194">《Term Rewriting and All That》解读</tspan></text>
  </g>
</svg>
